<svg xmlns="http://www.w3.org/2000/svg" xmlns:xlink="http://www.w3.org/1999/xlink" viewBox="0 0 216 153"><defs><style>.a{fill:#fff;}.b{fill:#0072c6;opacity:0.12;}.b,.c,.e{isolation:isolate;}.c{fill:#a33a85;opacity:0.1;}.d,.f{fill:none;stroke-miterlimit:10;}.d{stroke:#361737;stroke-width:0.25px;}.e{fill:#449cdd;opacity:0.65;}.f{stroke:#005ba1;stroke-width:0.5px;}.g{fill:url(#a);}</style><linearGradient id="a" x1="71.94" y1="212.08" x2="71.94" y2="190.08" gradientTransform="translate(0 -188.72)" gradientUnits="userSpaceOnUse"><stop offset="0" stop-color="#0078d4"/><stop offset="0.16" stop-color="#1380da"/><stop offset="0.53" stop-color="#3c91e5"/><stop offset="0.82" stop-color="#559cec"/><stop offset="1" stop-color="#5ea0ef"/></linearGradient></defs><rect class="a" width="216" height="153"/><rect class="a" x="1" y="26.64" width="214" height="125"/><rect class="b" x="1" y="26.64" width="214" height="125"/><rect class="a" x="1" y="7.64" width="214" height="10"/><rect class="b" x="1" y="7.64" width="214" height="10"/><rect class="a" x="127.22" y="116.64" width="80" height="28" rx="5"/><rect class="c" x="127.22" y="116.64" width="80" height="28" rx="5"/><rect class="d" x="127.22" y="116.64" width="80" height="28" rx="5"/><rect class="a" x="10.5" y="37.14" width="196" height="30"/><rect class="e" x="10.5" y="37.14" width="196" height="30"/><rect class="f" x="10.5" y="37.14" width="196" height="30"/><rect class="a" x="10.5" y="77.14" width="196" height="30"/><rect class="e" x="10.5" y="77.14" width="196" height="30"/><rect class="f" x="10.5" y="77.14" width="196" height="30"/><path class="g" d="M68.64,16.76h6.6v6.6h-6.6ZM60.94,8h6.6V1.36H61.86a.92.92,0,0,0-.92.92Zm.92,15.4h5.68V16.8h-6.6v5.68A.92.92,0,0,0,61.86,23.4Zm-.92-7.7h6.6V9.06h-6.6Zm15.4,7.7H82a.92.92,0,0,0,.92-.92h0V16.76h-6.6Zm-7.7-7.7h6.6V9.06h-6.6Zm7.7,0h6.6V9.06h-6.6Zm0-14.3V8h6.6V2.28A.92.92,0,0,0,82,1.36H76.34ZM68.64,8h6.6V1.36h-6.6Z"/><path d="M149,135h-1v-8.88h1Z"/><path d="M151.23,127.48a.6.6,0,0,1-.44-.18.59.59,0,0,1-.18-.44.61.61,0,0,1,.18-.45.6.6,0,0,1,.44-.18.64.64,0,0,1,.45.18.61.61,0,0,1,.18.45.58.58,0,0,1-.18.43A.61.61,0,0,1,151.23,127.48Zm.47,7.52h-1v-6h1Z"/><path d="M154.45,134.13h0V135h-1v-8.88h1v3.93h0a2.27,2.27,0,0,1,2.07-1.19,2.2,2.2,0,0,1,1.81.81,3.32,3.32,0,0,1,.65,2.15,3.73,3.73,0,0,1-.73,2.42,2.45,2.45,0,0,1-2,.9A2,2,0,0,1,154.45,134.13Zm0-2.42v.84a1.73,1.73,0,0,0,.49,1.26,1.71,1.71,0,0,0,2.59-.15,3,3,0,0,0,.5-1.85,2.41,2.41,0,0,0-.47-1.57,1.51,1.51,0,0,0-1.25-.57,1.7,1.7,0,0,0-1.35.58A2.15,2.15,0,0,0,154.42,131.71Z"/><path d="M165.19,135h-1v-.95h0a2,2,0,0,1-1.85,1.09c-1.43,0-2.14-.85-2.14-2.55V129h.95v3.43c0,1.27.49,1.9,1.46,1.9a1.45,1.45,0,0,0,1.15-.52,1.92,1.92,0,0,0,.46-1.35V129h1Z"/><path d="M171.67,129l-2.4,6h-.94l-2.27-6h1.05l1.53,4.36a4.27,4.27,0,0,1,.21.84h0a3.94,3.94,0,0,1,.19-.82l1.59-4.38Z"/><path d="M178.14,136.91h-.85a7.5,7.5,0,0,1-1.82-5.12,7.77,7.77,0,0,1,1.82-5.19h.86a7.91,7.91,0,0,0-1.84,5.18A7.75,7.75,0,0,0,178.14,136.91Z"/><path d="M184.91,134.65a4.89,4.89,0,0,1-2.32.49,3.74,3.74,0,0,1-2.87-1.15,4.26,4.26,0,0,1-1.08-3,4.46,4.46,0,0,1,1.22-3.26,4.08,4.08,0,0,1,3.07-1.24,4.92,4.92,0,0,1,2,.34v1a4.05,4.05,0,0,0-2-.5,3.08,3.08,0,0,0-2.35,1,3.66,3.66,0,0,0-.9,2.59,3.44,3.44,0,0,0,.84,2.44,2.88,2.88,0,0,0,2.21.92,4.11,4.11,0,0,0,2.19-.57Z"/><path d="M186.34,136.91h-.86a7.75,7.75,0,0,0,1.83-5.13,7.86,7.86,0,0,0-1.84-5.18h.87a7.73,7.73,0,0,1,1.83,5.19A7.46,7.46,0,0,1,186.34,136.91Z"/><path d="M49.45,95.62H45V87.21h4.26v.9H46V90.9h3v.89H46v2.94h3.47Z"/><path d="M55.74,95.62h-1V92.2c0-1.28-.47-1.91-1.39-1.91a1.52,1.52,0,0,0-1.2.54,2,2,0,0,0-.47,1.37v3.42h-1v-6h1v1h0a2.18,2.18,0,0,1,2-1.13,1.85,1.85,0,0,1,1.51.63A2.84,2.84,0,0,1,55.74,92Z"/><path d="M58.33,95.62h-1V86.73h1Z"/><path d="M64.39,95.62h-1v-.94h0a2,2,0,0,1-1.85,1.08,2,2,0,0,1-1.4-.48A1.62,1.62,0,0,1,59.65,94q0-1.68,2-2l1.8-.26c0-1-.41-1.52-1.23-1.52a3,3,0,0,0-2,.73V90a3.68,3.68,0,0,1,2-.56c1.41,0,2.11.74,2.11,2.23Zm-1-3-1.45.2a2.25,2.25,0,0,0-1,.33,1,1,0,0,0-.34.84.9.9,0,0,0,.31.72,1.2,1.2,0,0,0,.84.28,1.56,1.56,0,0,0,1.18-.5,1.8,1.8,0,0,0,.46-1.27Z"/><path d="M70.11,95.34a3.1,3.1,0,0,1-1.64.42,2.72,2.72,0,0,1-2.07-.84,3,3,0,0,1-.79-2.16,3.35,3.35,0,0,1,.85-2.38,3,3,0,0,1,2.27-.9,3.06,3.06,0,0,1,1.39.29v1a2.44,2.44,0,0,0-1.43-.46,1.91,1.91,0,0,0-1.5.65,2.48,2.48,0,0,0-.59,1.74,2.38,2.38,0,0,0,.55,1.66,1.91,1.91,0,0,0,1.49.61,2.38,2.38,0,0,0,1.47-.52Z"/><path d="M76.21,92.86H72a2.26,2.26,0,0,0,.54,1.54,1.84,1.84,0,0,0,1.42.55,2.91,2.91,0,0,0,1.86-.67v.9a3.41,3.41,0,0,1-2.09.58,2.53,2.53,0,0,1-2-.82,3.35,3.35,0,0,1-.72-2.3,3.28,3.28,0,0,1,.79-2.28,2.54,2.54,0,0,1,2-.88,2.24,2.24,0,0,1,1.82.76,3.17,3.17,0,0,1,.65,2.11Zm-1-.82a1.9,1.9,0,0,0-.4-1.29,1.36,1.36,0,0,0-1.1-.46,1.56,1.56,0,0,0-1.15.48A2.25,2.25,0,0,0,72,92Z"/><path d="M77.12,95.4v-1a2.82,2.82,0,0,0,1.73.58q1.26,0,1.26-.84A.68.68,0,0,0,80,93.7a1.17,1.17,0,0,0-.29-.3,2.86,2.86,0,0,0-.43-.23L78.74,93c-.26-.11-.5-.21-.7-.32a2,2,0,0,1-.5-.37,1.21,1.21,0,0,1-.31-.46,1.57,1.57,0,0,1-.1-.6,1.44,1.44,0,0,1,.19-.75,1.78,1.78,0,0,1,.52-.54,2.21,2.21,0,0,1,.73-.33,3.07,3.07,0,0,1,.86-.11,3.41,3.41,0,0,1,1.39.27v1a2.7,2.7,0,0,0-1.52-.43,1.88,1.88,0,0,0-.49.06,1.26,1.26,0,0,0-.37.17.78.78,0,0,0-.24.27.64.64,0,0,0-.09.34.75.75,0,0,0,.09.39.83.83,0,0,0,.25.28,2.11,2.11,0,0,0,.4.23l.53.21a6,6,0,0,1,.71.32,1.82,1.82,0,0,1,.54.36,1.41,1.41,0,0,1,.35.46,1.54,1.54,0,0,1,.12.63,1.51,1.51,0,0,1-.2.78,1.78,1.78,0,0,1-.52.54,2.49,2.49,0,0,1-.76.32,3.76,3.76,0,0,1-.9.11A3.37,3.37,0,0,1,77.12,95.4Z"/><path d="M90.62,95.62h-1v-1h0a2.42,2.42,0,0,1-3.87.35,3.3,3.3,0,0,1-.68-2.19,3.62,3.62,0,0,1,.75-2.39,2.5,2.5,0,0,1,2-.89,1.93,1.93,0,0,1,1.8,1h0V86.73h1Zm-1-2.72V92a1.73,1.73,0,0,0-.48-1.23,1.6,1.6,0,0,0-1.22-.5,1.65,1.65,0,0,0-1.38.64,2.79,2.79,0,0,0-.51,1.78,2.56,2.56,0,0,0,.49,1.64,1.57,1.57,0,0,0,1.3.6,1.63,1.63,0,0,0,1.3-.58A2.2,2.2,0,0,0,89.66,92.9Z"/><path d="M97.21,92.86H93a2.26,2.26,0,0,0,.54,1.54,1.85,1.85,0,0,0,1.42.55,2.89,2.89,0,0,0,1.86-.67v.9a3.41,3.41,0,0,1-2.09.58,2.53,2.53,0,0,1-2-.82,3.35,3.35,0,0,1-.72-2.3,3.28,3.28,0,0,1,.79-2.28,2.54,2.54,0,0,1,2-.88,2.24,2.24,0,0,1,1.82.76,3.17,3.17,0,0,1,.65,2.11Zm-1-.82a1.9,1.9,0,0,0-.4-1.29,1.36,1.36,0,0,0-1.1-.46,1.56,1.56,0,0,0-1.15.48A2.25,2.25,0,0,0,93,92Z"/><path d="M108.49,95.62h-1.21L103,88.92a2.65,2.65,0,0,1-.27-.53h0a9.48,9.48,0,0,1,0,1.16v6.07h-1V87.21H103l4.2,6.6a5.88,5.88,0,0,1,.34.56h0a8.74,8.74,0,0,1-.06-1.24V87.21h1Z"/><path d="M112.89,95.76a2.79,2.79,0,0,1-2.12-.84,3.12,3.12,0,0,1-.79-2.23,3.23,3.23,0,0,1,.82-2.36,3,3,0,0,1,2.23-.85,2.69,2.69,0,0,1,2.1.82,3.29,3.29,0,0,1,.75,2.29,3.21,3.21,0,0,1-.81,2.3A2.84,2.84,0,0,1,112.89,95.76Zm.07-5.47a1.83,1.83,0,0,0-1.46.63,2.54,2.54,0,0,0-.54,1.73,2.46,2.46,0,0,0,.54,1.68A1.87,1.87,0,0,0,113,95a1.79,1.79,0,0,0,1.44-.6,2.67,2.67,0,0,0,.5-1.72,2.71,2.71,0,0,0-.5-1.74A1.79,1.79,0,0,0,113,90.29Z"/><path d="M122.36,95.62h-1v-1h0a2.21,2.21,0,0,1-2.06,1.16A2.26,2.26,0,0,1,117.5,95a3.29,3.29,0,0,1-.67-2.19,3.62,3.62,0,0,1,.75-2.39,2.48,2.48,0,0,1,2-.89,1.9,1.9,0,0,1,1.79,1h0V86.73h1Zm-1-2.72V92a1.73,1.73,0,0,0-.48-1.23,1.6,1.6,0,0,0-1.22-.5,1.64,1.64,0,0,0-1.38.64,2.79,2.79,0,0,0-.51,1.78,2.56,2.56,0,0,0,.48,1.64,1.6,1.6,0,0,0,1.3.6,1.65,1.65,0,0,0,1.31-.58A2.2,2.2,0,0,0,121.4,92.9Z"/><path d="M129,92.86h-4.24a2.16,2.16,0,0,0,.54,1.54,1.82,1.82,0,0,0,1.42.55,2.93,2.93,0,0,0,1.86-.67v.9a3.45,3.45,0,0,1-2.09.58,2.52,2.52,0,0,1-2-.82,3.36,3.36,0,0,1-.73-2.3,3.29,3.29,0,0,1,.8-2.28,2.53,2.53,0,0,1,2-.88,2.25,2.25,0,0,1,1.82.76,3.17,3.17,0,0,1,.65,2.11ZM128,92a2,2,0,0,0-.4-1.29,1.36,1.36,0,0,0-1.1-.46,1.55,1.55,0,0,0-1.15.48,2.19,2.19,0,0,0-.59,1.27Z"/><path d="M130.55,95.75a.63.63,0,0,1-.46-.2.66.66,0,0,1-.19-.46.68.68,0,0,1,.19-.47.62.62,0,0,1,.46-.19.63.63,0,0,1,.47.19.64.64,0,0,1,.19.47.62.62,0,0,1-.19.46A.63.63,0,0,1,130.55,95.75Z"/><path d="M133.6,95.37a3.79,3.79,0,0,1-.59,2.27,2,2,0,0,1-1.71.8,1.73,1.73,0,0,1-.79-.19v-.89a1.63,1.63,0,0,0,.82.26c.87,0,1.31-.7,1.31-2.1v-5.9h1Zm-.47-7.28a.6.6,0,0,1-.44-.17.65.65,0,0,1,0-.9.64.64,0,0,1,.44-.17.64.64,0,0,1,.45.17.62.62,0,0,1,0,.89A.61.61,0,0,1,133.13,88.09Z"/><path d="M135,95.4v-1a2.84,2.84,0,0,0,1.73.58c.85,0,1.27-.28,1.27-.84a.76.76,0,0,0-.11-.41,1.17,1.17,0,0,0-.29-.3,3,3,0,0,0-.44-.23l-.53-.21a6.76,6.76,0,0,1-.7-.32,2,2,0,0,1-.51-.37,1.31,1.31,0,0,1-.3-.46,1.57,1.57,0,0,1-.1-.6,1.44,1.44,0,0,1,.19-.75,1.87,1.87,0,0,1,.51-.54,2.26,2.26,0,0,1,.74-.33,3,3,0,0,1,.85-.11,3.46,3.46,0,0,1,1.4.27v1a2.71,2.71,0,0,0-1.53-.43,1.75,1.75,0,0,0-.48.06,1.33,1.33,0,0,0-.38.17.78.78,0,0,0-.24.27.74.74,0,0,0-.08.34.87.87,0,0,0,.08.39.83.83,0,0,0,.25.28,2.48,2.48,0,0,0,.4.23l.54.21a6.81,6.81,0,0,1,.71.32,2.12,2.12,0,0,1,.54.36,1.38,1.38,0,0,1,.34.46A1.54,1.54,0,0,1,139,94a1.5,1.5,0,0,1-.19.78,1.82,1.82,0,0,1-.53.54,2.54,2.54,0,0,1-.75.32,3.82,3.82,0,0,1-.9.11A3.41,3.41,0,0,1,135,95.4Z"/><path d="M145.91,97.53h-.86a7.52,7.52,0,0,1-1.82-5.12,7.8,7.8,0,0,1,1.82-5.2h.87a7.91,7.91,0,0,0-1.84,5.19A7.75,7.75,0,0,0,145.91,97.53Z"/><path d="M152.67,95.27a5,5,0,0,1-2.32.49,3.75,3.75,0,0,1-2.87-1.16,4.26,4.26,0,0,1-1.08-3,4.44,4.44,0,0,1,1.22-3.25,4.11,4.11,0,0,1,3.07-1.25,4.91,4.91,0,0,1,2,.35v1a4,4,0,0,0-2-.51,3.07,3.07,0,0,0-2.34,1,3.66,3.66,0,0,0-.9,2.59,3.46,3.46,0,0,0,.84,2.44,2.84,2.84,0,0,0,2.2.91,4.06,4.06,0,0,0,2.19-.56Z"/><path d="M160,92.51H157.6v2.36h-.78V92.51h-2.36v-.78h2.36V89.37h.78v2.36H160Z"/><path d="M168,92.51h-2.37v2.36h-.78V92.51h-2.36v-.78h2.36V89.37h.78v2.36H168Z"/><path d="M170.16,97.53h-.86a7.75,7.75,0,0,0,1.83-5.13,7.91,7.91,0,0,0-1.84-5.19h.87a7.75,7.75,0,0,1,1.83,5.2A7.47,7.47,0,0,1,170.16,97.53Z"/><path d="M20.66,56.79H19.57l-.89-2.36H15.12l-.84,2.36h-1.1l3.23-8.41h1Zm-2.3-3.24L17,50a3.55,3.55,0,0,1-.13-.57h0a3.38,3.38,0,0,1-.14.57l-1.31,3.58Z"/><path d="M22.7,53.61v3.18h-1V48.38H24a3,3,0,0,1,2.09.66,2.33,2.33,0,0,1,.74,1.85,2.54,2.54,0,0,1-.82,2,3.13,3.13,0,0,1-2.22.76Zm0-4.33v3.44h1a2.27,2.27,0,0,0,1.56-.47,1.65,1.65,0,0,0,.53-1.31c0-1.11-.65-1.66-2-1.66Z"/><path d="M29.24,56.79h-1V48.38h1Z"/><path d="M39.37,56.79h-1v-1h0a2.21,2.21,0,0,1-2.06,1.16,2.26,2.26,0,0,1-1.81-.81,3.31,3.31,0,0,1-.67-2.19,3.62,3.62,0,0,1,.75-2.39,2.48,2.48,0,0,1,2-.89,1.9,1.9,0,0,1,1.79,1h0V47.9h1Zm-1-2.72v-.88A1.71,1.71,0,0,0,37.93,52a1.6,1.6,0,0,0-1.22-.5,1.64,1.64,0,0,0-1.38.64,2.79,2.79,0,0,0-.51,1.78,2.51,2.51,0,0,0,.49,1.64,1.57,1.57,0,0,0,1.29.6,1.65,1.65,0,0,0,1.31-.58A2.2,2.2,0,0,0,38.41,54.07Z"/><path d="M46,54H41.72a2.26,2.26,0,0,0,.54,1.54,1.84,1.84,0,0,0,1.42.55,2.93,2.93,0,0,0,1.86-.67v.9a3.43,3.43,0,0,1-2.09.58,2.53,2.53,0,0,1-2-.82,3.36,3.36,0,0,1-.73-2.3,3.29,3.29,0,0,1,.8-2.28,2.53,2.53,0,0,1,2-.88,2.25,2.25,0,0,1,1.82.76A3.17,3.17,0,0,1,46,53.52Zm-1-.82a2,2,0,0,0-.4-1.29,1.36,1.36,0,0,0-1.1-.46,1.55,1.55,0,0,0-1.15.48,2.25,2.25,0,0,0-.59,1.27Z"/><path d="M54.43,56.51a3.1,3.1,0,0,1-1.64.42,2.73,2.73,0,0,1-2.08-.84,3,3,0,0,1-.78-2.16,3.3,3.3,0,0,1,.85-2.38,3,3,0,0,1,2.26-.9,3.1,3.1,0,0,1,1.4.29v1A2.46,2.46,0,0,0,53,51.46a1.93,1.93,0,0,0-1.51.65,2.53,2.53,0,0,0-.59,1.74,2.43,2.43,0,0,0,.55,1.66,1.91,1.91,0,0,0,1.49.61,2.41,2.41,0,0,0,1.48-.52Z"/><path d="M58.21,56.93a2.79,2.79,0,0,1-2.13-.84,3.12,3.12,0,0,1-.79-2.23,3.19,3.19,0,0,1,.83-2.36,3,3,0,0,1,2.23-.85,2.68,2.68,0,0,1,2.09.82,3.29,3.29,0,0,1,.76,2.29,3.18,3.18,0,0,1-.82,2.3A2.82,2.82,0,0,1,58.21,56.93Zm.07-5.47a1.86,1.86,0,0,0-1.47.62,2.59,2.59,0,0,0-.54,1.74,2.46,2.46,0,0,0,.55,1.68,1.85,1.85,0,0,0,1.46.62,1.75,1.75,0,0,0,1.43-.6,2.67,2.67,0,0,0,.5-1.72,2.71,2.71,0,0,0-.5-1.74A1.75,1.75,0,0,0,58.28,51.46Zm1.4-3.73-1.53,1.92H57.4l1.31-1.92Z"/><path d="M67.67,56.79h-1v-1h0a2.42,2.42,0,0,1-3.87.35,3.32,3.32,0,0,1-.68-2.19,3.62,3.62,0,0,1,.75-2.39,2.5,2.5,0,0,1,2-.89,1.93,1.93,0,0,1,1.8,1h0V47.9h1Zm-1-2.72v-.88A1.71,1.71,0,0,0,66.23,52a1.6,1.6,0,0,0-1.22-.5,1.65,1.65,0,0,0-1.38.64,2.79,2.79,0,0,0-.5,1.78,2.56,2.56,0,0,0,.48,1.64,1.57,1.57,0,0,0,1.3.6,1.63,1.63,0,0,0,1.3-.58A2.2,2.2,0,0,0,66.71,54.07Z"/><path d="M69.93,49.26a.6.6,0,0,1-.44-.17.65.65,0,0,1,0-.9.64.64,0,0,1,.44-.17.66.66,0,0,1,.45.17.61.61,0,0,1,.18.45.6.6,0,0,1-.18.44A.63.63,0,0,1,69.93,49.26Zm.47,7.53h-1v-6h1Z"/><path d="M77.28,56.31q0,3.3-3.16,3.3a4.23,4.23,0,0,1-1.94-.42v-1a4,4,0,0,0,1.93.56c1.48,0,2.21-.78,2.21-2.35v-.66h0a2.42,2.42,0,0,1-3.86.35A3.19,3.19,0,0,1,71.75,54a3.73,3.73,0,0,1,.74-2.43,2.46,2.46,0,0,1,2-.9,2,2,0,0,1,1.8,1h0v-.83h1Zm-1-2.24v-.88A1.73,1.73,0,0,0,75.84,52a1.61,1.61,0,0,0-1.2-.5,1.67,1.67,0,0,0-1.4.64,2.94,2.94,0,0,0-.5,1.82,2.5,2.5,0,0,0,.48,1.6,1.56,1.56,0,0,0,1.28.6,1.67,1.67,0,0,0,1.32-.58A2.16,2.16,0,0,0,76.32,54.07Z"/><path d="M81.56,56.93a2.79,2.79,0,0,1-2.13-.84,3.12,3.12,0,0,1-.79-2.23,3.23,3.23,0,0,1,.83-2.36,3,3,0,0,1,2.23-.85,2.68,2.68,0,0,1,2.09.82,3.29,3.29,0,0,1,.76,2.29,3.18,3.18,0,0,1-.82,2.3A2.82,2.82,0,0,1,81.56,56.93Zm.07-5.47a1.86,1.86,0,0,0-1.47.62,2.59,2.59,0,0,0-.54,1.74,2.46,2.46,0,0,0,.55,1.68,1.85,1.85,0,0,0,1.46.62,1.75,1.75,0,0,0,1.43-.6,2.67,2.67,0,0,0,.5-1.72,2.71,2.71,0,0,0-.5-1.74A1.75,1.75,0,0,0,81.63,51.46Z"/><path d="M94.13,56.79h-1v-1h0a2.43,2.43,0,0,1-3.88.35,3.31,3.31,0,0,1-.67-2.19,3.62,3.62,0,0,1,.75-2.39,2.48,2.48,0,0,1,2-.89,1.93,1.93,0,0,1,1.8,1h0V47.9h1Zm-1-2.72v-.88A1.71,1.71,0,0,0,92.69,52a1.6,1.6,0,0,0-1.22-.5,1.64,1.64,0,0,0-1.38.64,2.79,2.79,0,0,0-.51,1.78,2.51,2.51,0,0,0,.49,1.64,1.57,1.57,0,0,0,1.29.6,1.65,1.65,0,0,0,1.31-.58A2.2,2.2,0,0,0,93.17,54.07Z"/><path d="M100.72,54H96.48A2.26,2.26,0,0,0,97,55.57a1.84,1.84,0,0,0,1.42.55,2.93,2.93,0,0,0,1.86-.67v.9a3.43,3.43,0,0,1-2.09.58,2.53,2.53,0,0,1-2-.82,3.36,3.36,0,0,1-.73-2.3,3.29,3.29,0,0,1,.8-2.28,2.53,2.53,0,0,1,2-.88,2.24,2.24,0,0,1,1.82.76,3.17,3.17,0,0,1,.65,2.11Zm-1-.82a2,2,0,0,0-.4-1.29,1.36,1.36,0,0,0-1.1-.46,1.55,1.55,0,0,0-1.15.48,2.25,2.25,0,0,0-.59,1.27Z"/><path d="M112,56.79h-1.21l-4.32-6.7a2.65,2.65,0,0,1-.27-.53h0a8.79,8.79,0,0,1,0,1.16v6.07h-1V48.38h1.27l4.21,6.6a5.88,5.88,0,0,1,.34.56h0a11.27,11.27,0,0,1,0-1.24V48.38h1Z"/><path d="M116.4,56.93a2.77,2.77,0,0,1-2.12-.84,3.12,3.12,0,0,1-.8-2.23,3.23,3.23,0,0,1,.83-2.36,3,3,0,0,1,2.23-.85,2.71,2.71,0,0,1,2.1.82,3.29,3.29,0,0,1,.75,2.29,3.21,3.21,0,0,1-.81,2.3A2.84,2.84,0,0,1,116.4,56.93Zm.07-5.47a1.84,1.84,0,0,0-1.46.62,2.59,2.59,0,0,0-.54,1.74A2.46,2.46,0,0,0,115,55.5a1.87,1.87,0,0,0,1.46.62,1.75,1.75,0,0,0,1.43-.6,2.61,2.61,0,0,0,.51-1.72,2.65,2.65,0,0,0-.51-1.74A1.75,1.75,0,0,0,116.47,51.46Z"/><path d="M125.87,56.79h-1v-1h0a2.21,2.21,0,0,1-2.06,1.16,2.24,2.24,0,0,1-1.81-.81,3.32,3.32,0,0,1-.68-2.19,3.62,3.62,0,0,1,.75-2.39,2.5,2.5,0,0,1,2-.89,1.91,1.91,0,0,1,1.8,1h0V47.9h1Zm-1-2.72v-.88a1.68,1.68,0,0,0-.49-1.23,1.58,1.58,0,0,0-1.21-.5,1.67,1.67,0,0,0-1.39.64,2.85,2.85,0,0,0-.5,1.78,2.56,2.56,0,0,0,.48,1.64,1.73,1.73,0,0,0,2.6,0A2.16,2.16,0,0,0,124.91,54.07Z"/><path d="M132.45,54h-4.23a2.16,2.16,0,0,0,.54,1.54,1.82,1.82,0,0,0,1.41.55,2.94,2.94,0,0,0,1.87-.67v.9a3.45,3.45,0,0,1-2.09.58,2.52,2.52,0,0,1-2-.82,3.81,3.81,0,0,1,.07-4.58,2.51,2.51,0,0,1,2-.88,2.25,2.25,0,0,1,1.82.76,3.17,3.17,0,0,1,.64,2.11Zm-1-.82a2,2,0,0,0-.4-1.29,1.37,1.37,0,0,0-1.1-.46,1.59,1.59,0,0,0-1.16.48,2.24,2.24,0,0,0-.58,1.27Z"/><path d="M134.06,56.92a.63.63,0,0,1-.46-.2.62.62,0,0,1-.19-.46.64.64,0,0,1,.19-.47.62.62,0,0,1,.46-.19.65.65,0,0,1,.66.66.62.62,0,0,1-.19.46A.65.65,0,0,1,134.06,56.92Z"/><path d="M137.11,56.54a3.72,3.72,0,0,1-.6,2.27,2,2,0,0,1-1.7.8,1.7,1.7,0,0,1-.79-.19v-.89a1.6,1.6,0,0,0,.82.26c.87,0,1.31-.7,1.31-2.1v-5.9h1Zm-.47-7.28a.6.6,0,0,1-.44-.17.65.65,0,0,1,0-.9.64.64,0,0,1,.44-.17.64.64,0,0,1,.45.17.61.61,0,0,1,.18.45.6.6,0,0,1-.18.44A.61.61,0,0,1,136.64,49.26Z"/><path d="M138.51,56.57v-1a2.84,2.84,0,0,0,1.73.58c.84,0,1.27-.28,1.27-.84a.76.76,0,0,0-.11-.41,1.22,1.22,0,0,0-.3-.3,2.44,2.44,0,0,0-.43-.23l-.54-.21c-.26-.11-.5-.21-.7-.32a2,2,0,0,1-.5-.37,1.08,1.08,0,0,1-.3-.46,1.57,1.57,0,0,1-.11-.6,1.45,1.45,0,0,1,.2-.75,1.87,1.87,0,0,1,.51-.54,2.26,2.26,0,0,1,.74-.33,3,3,0,0,1,.85-.11,3.41,3.41,0,0,1,1.39.27v1a2.68,2.68,0,0,0-1.52-.43,1.75,1.75,0,0,0-.48.06,1.33,1.33,0,0,0-.38.17.78.78,0,0,0-.24.27.74.74,0,0,0-.08.34.87.87,0,0,0,.08.39.83.83,0,0,0,.25.28,2.11,2.11,0,0,0,.4.23l.53.21a6.17,6.17,0,0,1,.72.32,2.12,2.12,0,0,1,.54.36,1.38,1.38,0,0,1,.34.46,1.54,1.54,0,0,1,.12.63,1.51,1.51,0,0,1-.2.78,1.67,1.67,0,0,1-.52.54,2.49,2.49,0,0,1-.76.32,3.68,3.68,0,0,1-.89.11A3.39,3.39,0,0,1,138.51,56.57Z"/><path d="M149.41,58.7h-.85a7.52,7.52,0,0,1-1.82-5.12,7.8,7.8,0,0,1,1.82-5.2h.86a8,8,0,0,0-1.84,5.19A7.75,7.75,0,0,0,149.41,58.7Z"/><path d="M152.61,53.78A3.76,3.76,0,0,1,152,56.1a2,2,0,0,1-1.69.83,2.07,2.07,0,0,1-.81-.14v-1a1.31,1.31,0,0,0,.82.23c.89,0,1.33-.75,1.33-2.25V48.38h1Z"/><path d="M158.73,56.79h-1v-.94h0a2,2,0,0,1-1.85,1.08,2,2,0,0,1-1.4-.48,1.62,1.62,0,0,1-.51-1.26q0-1.68,2-1.95l1.8-.26c0-1-.41-1.52-1.23-1.52a3,3,0,0,0-2,.73v-1a3.68,3.68,0,0,1,2-.56c1.41,0,2.11.74,2.11,2.23Zm-1-3-1.45.2a2.25,2.25,0,0,0-1,.33,1,1,0,0,0-.34.84.9.9,0,0,0,.31.72,1.2,1.2,0,0,0,.84.28,1.56,1.56,0,0,0,1.18-.5,1.8,1.8,0,0,0,.46-1.27Z"/><path d="M165.08,50.79l-2.39,6h-.94l-2.28-6h1.06l1.52,4.36a4.38,4.38,0,0,1,.21.83h0a3.72,3.72,0,0,1,.18-.81l1.6-4.38Z"/><path d="M170.23,56.79h-1v-.94h0a2,2,0,0,1-1.84,1.08,2,2,0,0,1-1.41-.48,1.61,1.61,0,0,1-.5-1.26q0-1.68,2-1.95l1.8-.26c0-1-.42-1.52-1.24-1.52a3,3,0,0,0-2,.73v-1a3.68,3.68,0,0,1,2-.56c1.41,0,2.12.74,2.12,2.23Zm-1-3-1.45.2a2.3,2.3,0,0,0-1,.33,1,1,0,0,0-.34.84.9.9,0,0,0,.31.72,1.2,1.2,0,0,0,.84.28,1.55,1.55,0,0,0,1.18-.5,1.81,1.81,0,0,0,.47-1.27Z"/><path d="M171.59,56.45V55.29a2.48,2.48,0,0,0,.48.31,3,3,0,0,0,.59.24,3.3,3.3,0,0,0,.62.15,2.87,2.87,0,0,0,.57,0,2.29,2.29,0,0,0,1.36-.33,1.28,1.28,0,0,0,.29-1.57,1.74,1.74,0,0,0-.41-.46,3.91,3.91,0,0,0-.62-.39l-.78-.41a9.13,9.13,0,0,1-.82-.45,3.81,3.81,0,0,1-.66-.5,1.9,1.9,0,0,1-.44-.62,1.94,1.94,0,0,1-.16-.82,1.9,1.9,0,0,1,.25-1,2.21,2.21,0,0,1,.66-.7,3,3,0,0,1,.93-.41,4.3,4.3,0,0,1,1.07-.14,4,4,0,0,1,1.81.3v1.11a3.29,3.29,0,0,0-1.91-.52,3.48,3.48,0,0,0-.64.07,1.83,1.83,0,0,0-.57.22,1.31,1.31,0,0,0-.42.39,1.1,1.1,0,0,0-.15.59,1.22,1.22,0,0,0,.12.56,1.38,1.38,0,0,0,.35.42,3.76,3.76,0,0,0,.57.38l.78.4c.3.15.58.3.85.47a3.59,3.59,0,0,1,.71.54,2.36,2.36,0,0,1,.49.66,1.89,1.89,0,0,1,.18.84,2.15,2.15,0,0,1-.25,1,2.07,2.07,0,0,1-.65.7,2.94,2.94,0,0,1-1,.39,5.15,5.15,0,0,1-1.13.12l-.49,0-.6-.1a4.45,4.45,0,0,1-.58-.15A2,2,0,0,1,171.59,56.45Z"/><path d="M182.14,56.51a3.1,3.1,0,0,1-1.64.42,2.72,2.72,0,0,1-2.07-.84,3,3,0,0,1-.79-2.16,3.3,3.3,0,0,1,.85-2.38,3,3,0,0,1,2.27-.9,3.06,3.06,0,0,1,1.39.29v1a2.44,2.44,0,0,0-1.43-.46,1.94,1.94,0,0,0-1.51.65,2.52,2.52,0,0,0-.58,1.74,2.38,2.38,0,0,0,.55,1.66,1.89,1.89,0,0,0,1.49.61,2.38,2.38,0,0,0,1.47-.52Z"/><path d="M186.54,51.76a1.14,1.14,0,0,0-.72-.19,1.21,1.21,0,0,0-1,.58,2.62,2.62,0,0,0-.41,1.58v3.06h-1v-6h1V52h0a2.09,2.09,0,0,1,.63-1,1.4,1.4,0,0,1,.94-.36,1.65,1.65,0,0,1,.57.08Z"/><path d="M187.9,49.26a.6.6,0,0,1-.44-.17.65.65,0,0,1,0-.9.64.64,0,0,1,.44-.17.68.68,0,0,1,.45.17.61.61,0,0,1,.18.45.6.6,0,0,1-.18.44A.64.64,0,0,1,187.9,49.26Zm.47,7.53h-1v-6h1Z"/><path d="M191.12,55.92h0v3.63h-1V50.79h1v1.05h0a2.25,2.25,0,0,1,2.07-1.19,2.21,2.21,0,0,1,1.81.8,3.31,3.31,0,0,1,.65,2.16,3.69,3.69,0,0,1-.73,2.41,2.43,2.43,0,0,1-2,.91A2,2,0,0,1,191.12,55.92Zm0-2.42v.84a1.77,1.77,0,0,0,.49,1.26,1.71,1.71,0,0,0,2.59-.15,3,3,0,0,0,.5-1.86,2.49,2.49,0,0,0-.46-1.57,1.53,1.53,0,0,0-1.26-.56,1.7,1.7,0,0,0-1.35.58A2.13,2.13,0,0,0,191.09,53.5Z"/><path d="M199.79,56.73a1.91,1.91,0,0,1-.9.19c-1,0-1.57-.59-1.57-1.76V51.61h-1v-.82h1V49.32l1-.31v1.78h1.51v.82h-1.51V55a1.45,1.45,0,0,0,.2.86.84.84,0,0,0,.68.26,1,1,0,0,0,.63-.2Z"/><path d="M200.92,58.7h-.86a7.75,7.75,0,0,0,1.83-5.13,7.91,7.91,0,0,0-1.84-5.19h.87a7.75,7.75,0,0,1,1.83,5.2A7.47,7.47,0,0,1,200.92,58.7Z"/><path d="M98.86,16.57H96.8l-.6-1.86h-3l-.59,1.86H90.57l3.06-8.4h2.24Zm-3.09-3.32-.91-2.82a4.33,4.33,0,0,1-.14-.76h0a3.06,3.06,0,0,1-.15.73l-.91,2.85Z"/><path d="M101.6,15.88h0v3.45H99.73V10.57h1.85v.91h0a2.18,2.18,0,0,1,1.93-1.05,2.14,2.14,0,0,1,1.8.8A3.36,3.36,0,0,1,106,13.4a3.71,3.71,0,0,1-.74,2.41,2.42,2.42,0,0,1-2,.91A1.87,1.87,0,0,1,101.6,15.88Zm0-2.46v.48a1.52,1.52,0,0,0,.33,1,1.06,1.06,0,0,0,.86.39,1.12,1.12,0,0,0,1-.49,2.34,2.34,0,0,0,.35-1.38c0-1.06-.41-1.58-1.23-1.58a1.15,1.15,0,0,0-.93.43A1.69,1.69,0,0,0,101.55,13.42Z"/><path d="M109,16.57h-1.85V7.69H109Z"/><path d="M111.52,9.63a1.1,1.1,0,0,1-.77-.28.92.92,0,0,1-.3-.69.88.88,0,0,1,.3-.68,1.14,1.14,0,0,1,.77-.26,1.16,1.16,0,0,1,.77.26.91.91,0,0,1,.29.68.92.92,0,0,1-.29.7A1.11,1.11,0,0,1,111.52,9.63Zm.91,6.94h-1.85v-6h1.85Z"/><path d="M118.54,16.36a3.72,3.72,0,0,1-1.81.36,3,3,0,0,1-2.24-.84,2.9,2.9,0,0,1-.86-2.16,3.19,3.19,0,0,1,.92-2.41,3.38,3.38,0,0,1,2.45-.88,3.14,3.14,0,0,1,1.54.28v1.57a2.12,2.12,0,0,0-1.3-.43,1.7,1.7,0,0,0-1.26.46,1.75,1.75,0,0,0-.47,1.29,1.69,1.69,0,0,0,.45,1.25,1.62,1.62,0,0,0,1.22.45,2.47,2.47,0,0,0,1.36-.43Z"/><path d="M124.74,16.57H123v-.86h0a2,2,0,0,1-1.79,1,1.89,1.89,0,0,1-1.38-.49,1.8,1.8,0,0,1-.5-1.33q0-1.74,2.07-2l1.63-.22c0-.65-.35-1-1.07-1a3.58,3.58,0,0,0-2,.64v-1.4a4.57,4.57,0,0,1,1-.35,5.7,5.7,0,0,1,1.22-.15A2.26,2.26,0,0,1,124.74,13ZM123,14.14v-.41l-1.09.14c-.6.08-.9.35-.9.82a.67.67,0,0,0,.22.52.86.86,0,0,0,.59.2,1.1,1.1,0,0,0,.85-.36A1.31,1.31,0,0,0,123,14.14Z"/><path d="M130.75,16.36a3.69,3.69,0,0,1-1.81.36,3.06,3.06,0,0,1-2.24-.84,2.89,2.89,0,0,1-.85-2.16,3.16,3.16,0,0,1,.92-2.41,3.36,3.36,0,0,1,2.45-.88,3.1,3.1,0,0,1,1.53.28v1.57a2.09,2.09,0,0,0-1.29-.43,1.61,1.61,0,0,0-1.73,1.75,1.73,1.73,0,0,0,.44,1.25,1.66,1.66,0,0,0,1.23.45,2.42,2.42,0,0,0,1.35-.43Z"/><path d="M132.9,9.63a1.08,1.08,0,0,1-.76-.28.92.92,0,0,1-.3-.69.88.88,0,0,1,.3-.68,1.26,1.26,0,0,1,1.53,0,.88.88,0,0,1,.3.68.89.89,0,0,1-.3.7A1.08,1.08,0,0,1,132.9,9.63Zm.92,6.94H132v-6h1.85Z"/><path d="M138.24,16.72a3.23,3.23,0,0,1-2.36-.84A3,3,0,0,1,135,13.6a3.07,3.07,0,0,1,.89-2.33,3.37,3.37,0,0,1,2.41-.84,3.19,3.19,0,0,1,2.34.84,3,3,0,0,1,.85,2.22,3.13,3.13,0,0,1-.88,2.36A3.23,3.23,0,0,1,138.24,16.72Zm0-4.87a1.23,1.23,0,0,0-1,.45,2,2,0,0,0-.36,1.27c0,1.16.46,1.73,1.39,1.73s1.33-.59,1.33-1.77S139.18,11.85,138.28,11.85Zm2-4.12-1.84,1.9H137.1l1.52-1.9Z"/><path d="M148.5,16.57h-1.84V13.24c0-.93-.34-1.39-1-1.39a1,1,0,0,0-.79.37,1.36,1.36,0,0,0-.31.93v3.42h-1.85v-6h1.85v.95h0a2.12,2.12,0,0,1,1.93-1.09c1.33,0,2,.82,2,2.47Z"/><path class="a" d="M17,116.64h98.77c3.9,0,7.06,2.24,7.06,5v18c0,2.76-3.16,5-7.06,5H17c-3.89,0-7-2.24-7-5v-18C9.92,118.88,13.08,116.64,17,116.64Z"/><path class="c" d="M17,116.64h98.77c3.9,0,7.06,2.24,7.06,5v18c0,2.76-3.16,5-7.06,5H17c-3.89,0-7-2.24-7-5v-18C9.92,118.88,13.08,116.64,17,116.64Z"/><path class="d" d="M17,116.64h98.77c3.9,0,7.06,2.24,7.06,5v18c0,2.76-3.16,5-7.06,5H17c-3.89,0-7-2.24-7-5v-18C9.92,118.88,13.08,116.64,17,116.64Z"/><path d="M27.8,135h-1v-5.64c0-.44,0-1,.08-1.63h0a5.05,5.05,0,0,1-.25.81L23.76,135h-.48l-2.87-6.41a5.64,5.64,0,0,1-.25-.86h0c0,.33,0,.88,0,1.65V135h-.95v-8.4h1.3l2.58,5.86a7.92,7.92,0,0,1,.39,1h0c.17-.46.31-.8.41-1l2.63-5.83H27.8Z"/><path d="M32.21,135.14a2.79,2.79,0,0,1-2.13-.84,3.1,3.1,0,0,1-.79-2.23,3.21,3.21,0,0,1,.83-2.36,3,3,0,0,1,2.23-.85,2.66,2.66,0,0,1,2.09.83A3.28,3.28,0,0,1,35.2,132a3.21,3.21,0,0,1-.82,2.3A2.85,2.85,0,0,1,32.21,135.14Zm.07-5.47a1.84,1.84,0,0,0-1.47.63,2.59,2.59,0,0,0-.54,1.74,2.46,2.46,0,0,0,.55,1.68,1.85,1.85,0,0,0,1.46.61,1.75,1.75,0,0,0,1.43-.6,3.23,3.23,0,0,0,0-3.45A1.73,1.73,0,0,0,32.28,129.67Z"/><path d="M39.33,134.94a1.76,1.76,0,0,1-.89.19c-1,0-1.58-.59-1.58-1.76v-3.55h-1V129h1v-1.46l1-.32V129h1.51v.82H37.82v3.38a1.37,1.37,0,0,0,.21.86.81.81,0,0,0,.68.26,1,1,0,0,0,.62-.2Z"/><path d="M43,135.14a2.79,2.79,0,0,1-2.13-.84,3.1,3.1,0,0,1-.79-2.23,3.24,3.24,0,0,1,.82-2.36,3,3,0,0,1,2.24-.85,2.66,2.66,0,0,1,2.09.83,3.77,3.77,0,0,1-.06,4.59A2.85,2.85,0,0,1,43,135.14Zm.07-5.47a1.84,1.84,0,0,0-1.47.63A2.59,2.59,0,0,0,41,132a2.41,2.41,0,0,0,.55,1.68,1.85,1.85,0,0,0,1.46.61,1.77,1.77,0,0,0,1.43-.6,3.23,3.23,0,0,0,0-3.45A1.74,1.74,0,0,0,43,129.67Z"/><path d="M50.42,130a1.18,1.18,0,0,0-.73-.19,1.23,1.23,0,0,0-1,.58,2.72,2.72,0,0,0-.41,1.58V135h-1v-6h1v1.24h0a2.12,2.12,0,0,1,.63-1,1.42,1.42,0,0,1,.94-.36,1.5,1.5,0,0,1,.58.09Z"/><path d="M59.51,135h-1v-1h0a2.21,2.21,0,0,1-2.06,1.16,2.26,2.26,0,0,1-1.81-.81,3.28,3.28,0,0,1-.67-2.19,3.57,3.57,0,0,1,.75-2.38,2.46,2.46,0,0,1,2-.9,1.9,1.9,0,0,1,1.79,1h0v-3.71h1Zm-1-2.71v-.89a1.73,1.73,0,0,0-.48-1.23,1.78,1.78,0,0,0-2.6.14,2.81,2.81,0,0,0-.51,1.78,2.49,2.49,0,0,0,.49,1.64,1.57,1.57,0,0,0,1.29.6,1.65,1.65,0,0,0,1.31-.58A2.16,2.16,0,0,0,58.55,132.29Z"/><path d="M66.1,132.24H61.86a2.3,2.3,0,0,0,.54,1.55,1.87,1.87,0,0,0,1.42.54,2.93,2.93,0,0,0,1.86-.67v.91a3.5,3.5,0,0,1-2.09.57,2.53,2.53,0,0,1-2-.82,3.36,3.36,0,0,1-.73-2.3,3.29,3.29,0,0,1,.8-2.28,2.53,2.53,0,0,1,2-.88,2.24,2.24,0,0,1,1.82.76,3.18,3.18,0,0,1,.65,2.12Zm-1-.81a2,2,0,0,0-.4-1.3,1.36,1.36,0,0,0-1.1-.46,1.55,1.55,0,0,0-1.15.48,2.25,2.25,0,0,0-.59,1.28Z"/><path d="M76.85,126.6,73.74,135H72.66l-3-8.4h1.1L73,133.26a3.51,3.51,0,0,1,.17.74h0a4.21,4.21,0,0,1,.2-.75l2.37-6.65Z"/><path d="M77.3,132.66a2.19,2.19,0,0,1,.11-.67,2.45,2.45,0,0,1,.79-1.17,2.37,2.37,0,0,1,.66-.38,2.44,2.44,0,0,1-.87-.78,1.89,1.89,0,0,1-.32-1.06,2.07,2.07,0,0,1,.67-1.53,2.34,2.34,0,0,1,.75-.45,2.84,2.84,0,0,1,1.88,0,2.34,2.34,0,0,1,.75.45,1.94,1.94,0,0,1,.49.68,2,2,0,0,1,.18.85,1.89,1.89,0,0,1-.32,1.06,2.49,2.49,0,0,1-.86.78,2.32,2.32,0,0,1,.65.38,2.5,2.5,0,0,1,.49.54,2.29,2.29,0,0,1,.3.63,2.18,2.18,0,0,1,.1.67,2.35,2.35,0,0,1-.2,1,2.21,2.21,0,0,1-.55.79,2.75,2.75,0,0,1-.87.5,3.21,3.21,0,0,1-1.1.18,3.25,3.25,0,0,1-1.1-.18,2.7,2.7,0,0,1-.86-.5,2.23,2.23,0,0,1-.56-.79A2.36,2.36,0,0,1,77.3,132.66Zm1-.09a2,2,0,0,0,.12.71,1.5,1.5,0,0,0,.34.54,1.53,1.53,0,0,0,.53.35,1.94,1.94,0,0,0,.7.12,1.82,1.82,0,0,0,.67-.13,1.66,1.66,0,0,0,.54-.34,1.53,1.53,0,0,0,.35-.54,1.8,1.8,0,0,0,.13-.71,1.75,1.75,0,0,0-.12-.65,1.82,1.82,0,0,0-.34-.55,1.73,1.73,0,0,0-.54-.37,1.87,1.87,0,0,0-1.37,0,1.58,1.58,0,0,0-.53.35,1.53,1.53,0,0,0-.35.54A1.65,1.65,0,0,0,78.35,132.57Zm.3-3.89a1.42,1.42,0,0,0,.1.55,1.38,1.38,0,0,0,.75.75,1.33,1.33,0,0,0,.54.1,1.24,1.24,0,0,0,.54-.11,1.32,1.32,0,0,0,.44-.3,1.71,1.71,0,0,0,.3-.44,1.46,1.46,0,0,0,.11-.55,1.43,1.43,0,0,0-.11-.56,1.29,1.29,0,0,0-.29-.45,1.54,1.54,0,0,0-.45-.3,1.4,1.4,0,0,0-.54-.1,1.32,1.32,0,0,0-.57.11,1.23,1.23,0,0,0-.44.3,1.31,1.31,0,0,0-.28.45A1.42,1.42,0,0,0,78.65,128.68Z"/><path d="M89.67,136.91h-.86A7.5,7.5,0,0,1,87,131.79a7.77,7.77,0,0,1,1.82-5.19h.87a7.86,7.86,0,0,0-1.84,5.18A7.75,7.75,0,0,0,89.67,136.91Z"/><path d="M96.43,134.65a4.89,4.89,0,0,1-2.32.49A3.74,3.74,0,0,1,91.24,134a4.25,4.25,0,0,1-1.07-3,4.45,4.45,0,0,1,1.21-3.26,4.1,4.1,0,0,1,3.07-1.24,4.92,4.92,0,0,1,2,.34v1a4.05,4.05,0,0,0-2-.5,3.06,3.06,0,0,0-2.34,1,3.66,3.66,0,0,0-.9,2.59,3.44,3.44,0,0,0,.84,2.44,2.85,2.85,0,0,0,2.2.92,4.06,4.06,0,0,0,2.19-.57Z"/><path d="M103.73,131.89h-2.37v2.37h-.78v-2.37H98.22v-.78h2.36v-2.36h.78v2.36h2.37Z"/><path d="M111.76,131.89h-2.37v2.37h-.78v-2.37h-2.36v-.78h2.36v-2.36h.78v2.36h2.37Z"/><path d="M113.92,136.91h-.86a7.75,7.75,0,0,0,1.83-5.13,7.86,7.86,0,0,0-1.84-5.18h.87a7.73,7.73,0,0,1,1.83,5.19A7.46,7.46,0,0,1,113.92,136.91Z"/></svg>