<svg xmlns="http://www.w3.org/2000/svg" xmlns:xlink="http://www.w3.org/1999/xlink" viewBox="0 0 531.73 158"><defs><style>.a{fill:#fff;}.b,.i{fill:#3c3c41;}.b{opacity:0.15;}.b,.c,.d,.f,.j,.k{isolation:isolate;}.c{fill:#0072c6;opacity:0.12;}.d{fill:#a33a85;opacity:0.1;}.e,.g,.h,.k,.m,.s{fill:none;}.e{stroke:#361737;}.e,.g,.h,.s{stroke-miterlimit:10;}.e,.g,.s{stroke-width:0.25px;}.f,.j,.n{fill:#449cdd;}.f{opacity:0.5;}.g{stroke:#005ba1;}.h{stroke:#3c3c41;}.j{opacity:0.3;}.k,.m{stroke:#449cdd;stroke-width:2px;}.k{stroke-linecap:round;}.k,.l{opacity:0.4;}.o{fill:url(#a);}.p{fill:url(#b);}.q{fill:#59285f;}.r{fill:url(#c);}.s{stroke:#59285f;}.t{fill:#ccc;}.u{fill:url(#d);}</style><linearGradient id="a" x1="257.01" y1="17.96" x2="312.01" y2="17.96" gradientTransform="matrix(1, 0, 0, -1, 0, 160)" gradientUnits="userSpaceOnUse"><stop offset="0" stop-color="#449cdd"/><stop offset="0.08" stop-color="#449cdd" stop-opacity="0.94"/><stop offset="0.38" stop-color="#449cdd" stop-opacity="0.71"/><stop offset="0.65" stop-color="#449cdd" stop-opacity="0.54"/><stop offset="0.86" stop-color="#449cdd" stop-opacity="0.44"/><stop offset="1" stop-color="#449cdd" stop-opacity="0.4"/></linearGradient><linearGradient id="b" x1="179.01" y1="484.43" x2="234.01" y2="484.43" gradientTransform="matrix(-1, 0, 0, 1, 491.02, -453.8)" gradientUnits="userSpaceOnUse"><stop offset="0" stop-color="#449cdd" stop-opacity="0.4"/><stop offset="0.14" stop-color="#449cdd" stop-opacity="0.44"/><stop offset="0.35" stop-color="#449cdd" stop-opacity="0.54"/><stop offset="0.62" stop-color="#449cdd" stop-opacity="0.71"/><stop offset="0.92" stop-color="#449cdd" stop-opacity="0.94"/><stop offset="1" stop-color="#449cdd"/></linearGradient><linearGradient id="c" x1="369.67" y1="-60.44" x2="295.89" y2="-60.44" gradientTransform="matrix(1, 0, 0, -1, 73.12, 51.05)" gradientUnits="userSpaceOnUse"><stop offset="0" stop-color="#59285f"/><stop offset="1" stop-color="#449cdd" stop-opacity="0.4"/></linearGradient><linearGradient id="d" x1="368.01" y1="102.48" x2="416.01" y2="102.48" gradientTransform="matrix(1, 0, 0, -1, 0, 160)" gradientUnits="userSpaceOnUse"><stop offset="0" stop-color="#59285f"/><stop offset="1" stop-color="#59285f" stop-opacity="0.4"/></linearGradient></defs><rect class="a" width="531.73" height="158"/><rect class="a" x="26.5" y="16.54" width="29" height="140"/><rect class="b" x="26.5" y="16.54" width="29" height="140"/><rect class="a" x="136" y="16.54" width="121" height="140"/><rect class="c" x="136" y="16.54" width="121" height="140"/><rect class="a" x="407.28" y="21.54" width="120" height="125" rx="5"/><rect class="d" x="407.28" y="21.54" width="120" height="125" rx="5"/><rect class="e" x="407.28" y="21.54" width="120" height="125" rx="5"/><rect class="a" x="146" y="44.54" width="100" height="27"/><rect class="f" x="146" y="44.54" width="100" height="27"/><rect class="g" x="146" y="44.54" width="100" height="27"/><rect class="a" x="146" y="76.54" width="100" height="20"/><rect class="f" x="146" y="76.54" width="100" height="20"/><rect class="g" x="146" y="76.54" width="100" height="20"/><rect class="a" x="146" y="101.54" width="100" height="20"/><rect class="f" x="146" y="101.54" width="100" height="20"/><rect class="g" x="146" y="101.54" width="100" height="20"/><rect class="a" x="146" y="126.54" width="100" height="27.95"/><line class="h" x1="61.89" y1="86.54" x2="138.62" y2="86.54"/><polygon class="i" points="62.98 90.28 56.5 86.54 62.98 82.8 62.98 90.28"/><polygon class="i" points="137.53 90.28 144 86.54 137.53 82.8 137.53 90.28"/><circle class="a" cx="317.43" cy="86.33" r="45"/><circle class="j" cx="317.43" cy="86.33" r="45"/><path class="k" d="M292.62,137.23a55.49,55.49,0,0,1,5.84-101.79"/><g class="l"><path class="m" d="M324.6,31.5A55.49,55.49,0,0,1,372,76.44"/><polygon class="n" points="325.65 36.7 317.44 31.04 326.44 26.75 325.65 36.7"/></g><g class="l"><path class="m" d="M372.9,88.4A55.77,55.77,0,0,1,317.43,142"/><polygon class="n" points="367.8 89.92 372.68 81.22 377.77 89.8 367.8 89.92"/></g><polygon class="o" points="312.01 142.04 303.37 137.05 303.37 141.04 257.01 141.04 257.01 143.04 303.37 143.04 303.37 147.02 312.01 142.04"/><polygon class="p" points="257.01 30.63 265.64 35.62 265.64 31.63 312.01 31.63 312.01 29.63 265.64 29.63 265.64 25.64 257.01 30.63"/><polygon class="q" points="468.28 98.4 468.28 86.03 472.26 86.03 467.28 77.4 462.29 86.03 466.28 86.03 466.28 98.4 468.28 98.4"/><polygon class="a" points="442.79 111.5 434.15 106.51 434.15 110.5 370.01 110.5 369.01 112.5 434.15 112.5 434.15 116.48 442.79 111.5"/><polygon class="r" points="442.79 111.5 434.15 106.51 434.15 110.5 370.01 110.5 369.01 112.5 434.15 112.5 434.15 116.48 442.79 111.5"/><path class="q" d="M451.28,101.5h-5.41v20h5.41Z"/><path class="q" d="M460.63,101.5h-5.41v20h5.41Z"/><path class="q" d="M470,101.5h-5.41v20H470Z"/><path class="q" d="M479.33,101.5h-5.41v20h5.41Z"/><path class="q" d="M488.68,101.5h-5.4v20h5.4Z"/><rect class="a" x="417.18" y="47.54" width="100.19" height="27.76"/><rect class="s" x="417.18" y="47.54" width="100.19" height="27.76"/><path class="t" d="M438.91,69.25H423.37V53.71h15.54Zm-15-.5h14.54V54.21H423.88V68.75Z"/><path class="t" d="M435.69,57h-9.06v9h9.06Z"/><path class="q" d="M428.91,64a2.26,2.26,0,0,1,4.52,0h-4.52Z"/><path class="q" d="M432.46,60.11a1.29,1.29,0,1,1-1.3-1.28h0A1.3,1.3,0,0,1,432.46,60.11Z"/><path class="q" d="M437.15,55.53h3v-3h-3Z"/><path class="q" d="M432.16,55.53h3v-3h-3Z"/><path class="q" d="M427.17,55.53h3v-3h-3Z"/><path class="q" d="M422.18,55.53h3v-3h-3Z"/><path class="q" d="M437.18,70.54h3v-3h-3Z"/><path class="q" d="M432.2,70.54h3v-3h-3Z"/><path class="q" d="M427.2,70.54h3v-3h-3Z"/><path class="q" d="M422.21,70.54h3v-3h-3Z"/><path class="q" d="M437.18,65.58h3v-3h-3Z"/><path class="q" d="M422.21,65.58h3v-3h-3Z"/><path class="q" d="M437.18,60.52h3v-3h-3Z"/><path class="q" d="M422.21,60.52h3v-3h-3Z"/><path class="t" d="M463.18,69.25H447.65V53.71h15.53Zm-15-.5h14.54V54.21H448.15V68.75Z"/><path class="t" d="M460,57h-9.1v9H460Z"/><path class="q" d="M453.18,64a2.27,2.27,0,0,1,4.53,0Z"/><path class="q" d="M456.73,60.11a1.28,1.28,0,1,1-1.28-1.28h0A1.28,1.28,0,0,1,456.73,60.11Z"/><path class="q" d="M461.42,55.53h3v-3h-3Z"/><path class="q" d="M456.44,55.53h3v-3h-3Z"/><path class="q" d="M451.45,55.53h3v-3h-3Z"/><path class="q" d="M446.45,55.53h3v-3h-3Z"/><path class="q" d="M461.46,70.54h3v-3h-3Z"/><path class="q" d="M456.47,70.54h3v-3h-3Z"/><path class="q" d="M451.48,70.54h3v-3h-3Z"/><path class="q" d="M446.49,70.54h3v-3h-3Z"/><path class="q" d="M461.46,65.58h3v-3h-3Z"/><path class="q" d="M446.49,65.58h3v-3h-3Z"/><path class="q" d="M461.46,60.52h3v-3h-3Z"/><path class="q" d="M446.49,60.52h3v-3h-3Z"/><path class="t" d="M487.46,69.25H471.92V53.71h15.54Zm-15-.5H487V54.21H472.42V68.75Z"/><path class="t" d="M484.23,57h-9.05v9h9.05Z"/><path class="q" d="M477.45,64A2.28,2.28,0,0,1,482,64Z"/><path class="q" d="M481,60.11a1.29,1.29,0,0,1-2.57.23.89.89,0,0,1,0-.23,1.29,1.29,0,0,1,2.57,0Z"/><path class="q" d="M485.7,55.53h3v-3h-3Z"/><path class="q" d="M480.71,55.53h3v-3h-3Z"/><path class="q" d="M475.72,55.53h3v-3h-3Z"/><path class="q" d="M470.73,55.53h3v-3h-3Z"/><path class="q" d="M485.73,70.54h3v-3h-3Z"/><path class="q" d="M480.74,70.54h3v-3h-3Z"/><path class="q" d="M475.75,70.54h3v-3h-3Z"/><path class="q" d="M470.76,70.54h3v-3h-3Z"/><path class="q" d="M485.73,65.58h3v-3h-3Z"/><path class="q" d="M470.76,65.58h3v-3h-3Z"/><path class="q" d="M485.73,60.52h3v-3h-3Z"/><path class="q" d="M470.76,60.52h3v-3h-3Z"/><path class="t" d="M511.73,69.25H496.2V53.71h15.53Zm-15-.5h14.54V54.21H496.7V68.75Z"/><path class="t" d="M508.51,57h-9.06v9h9.06Z"/><path class="q" d="M501.73,64a2.26,2.26,0,0,1,4.52,0h-4.52Z"/><path class="q" d="M505.28,60.11a1.29,1.29,0,1,1-1.3-1.28h0A1.28,1.28,0,0,1,505.28,60.11Z"/><path class="q" d="M510,55.53h3v-3h-3Z"/><path class="q" d="M505,55.53h3v-3h-3Z"/><path class="q" d="M500,55.53h3v-3h-3Z"/><path class="q" d="M495,55.53h3v-3h-3Z"/><path class="q" d="M510,70.54h3v-3h-3Z"/><path class="q" d="M505,70.54h3v-3h-3Z"/><path class="q" d="M500,70.54h3v-3h-3Z"/><path class="q" d="M495,70.54h3v-3h-3Z"/><path class="q" d="M510,65.58h3v-3h-3Z"/><path class="q" d="M495,65.58h3v-3h-3Z"/><path class="q" d="M510,60.52h3v-3h-3Z"/><path class="q" d="M495,60.52h3v-3h-3Z"/><polygon class="a" points="416.01 56.52 376.64 56.52 376.64 52.54 368.01 57.52 376.64 62.51 376.64 58.52 416.01 58.52 416.01 56.52"/><polygon class="u" points="416.01 56.52 376.64 56.52 376.64 52.54 368.01 57.52 376.64 62.51 376.64 58.52 416.01 58.52 416.01 56.52"/><path d="M187.4,115.28h-1l-.85-2.26h-3.42l-.8,2.26h-1l3.09-8.06h1Zm-2.2-3.11-1.27-3.43a3.25,3.25,0,0,1-.12-.54h0a3.06,3.06,0,0,1-.13.54l-1.25,3.43Z"/><path d="M192.1,115a3,3,0,0,1-1.57.4,2.62,2.62,0,0,1-2-.8,2.89,2.89,0,0,1-.75-2.07,3.22,3.22,0,0,1,.81-2.29,2.86,2.86,0,0,1,2.17-.86,3.14,3.14,0,0,1,1.34.28v1a2.34,2.34,0,0,0-1.37-.45,1.86,1.86,0,0,0-1.45.63,2.42,2.42,0,0,0-.56,1.66,2.3,2.3,0,0,0,.53,1.59,1.83,1.83,0,0,0,1.42.59,2.34,2.34,0,0,0,1.42-.5Z"/><path d="M195.87,115.22a1.77,1.77,0,0,1-.86.18c-1,0-1.51-.56-1.51-1.68v-3.41h-1v-.78h1v-1.41l.92-.29v1.7h1.45v.78h-1.45v3.24a1.37,1.37,0,0,0,.2.83.8.8,0,0,0,.65.25,1,1,0,0,0,.6-.2Z"/><path d="M197.28,108.07a.61.61,0,0,1-.42-.17.6.6,0,0,1-.17-.43.61.61,0,0,1,.17-.43.61.61,0,0,1,.42-.17.6.6,0,0,1,.43.17.58.58,0,0,1,.18.43.54.54,0,0,1-.18.42A.57.57,0,0,1,197.28,108.07Zm.45,7.21h-.92v-5.75h.92Z"/><path d="M203.83,109.53l-2.29,5.75h-.91l-2.17-5.75h1l1.46,4.17a4,4,0,0,1,.2.81h0a4.07,4.07,0,0,1,.18-.78l1.53-4.2Z"/><path d="M208.65,115.28h-.92v-.9h0a1.92,1.92,0,0,1-1.77,1,1.89,1.89,0,0,1-1.34-.45,1.61,1.61,0,0,1-.49-1.21c0-1.08.64-1.7,1.9-1.88l1.73-.24c0-1-.4-1.46-1.19-1.46a2.81,2.81,0,0,0-1.87.7v-.94a3.53,3.53,0,0,1,2-.54c1.35,0,2,.72,2,2.15Zm-.92-2.91-1.39.19a2.16,2.16,0,0,0-1,.32.92.92,0,0,0-.32.8.89.89,0,0,0,.3.69,1.14,1.14,0,0,0,.8.27,1.49,1.49,0,0,0,1.13-.48,1.72,1.72,0,0,0,.45-1.22Z"/><path d="M213.09,110.46a1.07,1.07,0,0,0-.69-.19,1.17,1.17,0,0,0-1,.56,2.6,2.6,0,0,0-.39,1.51v2.94h-.93v-5.75H211v1.18h0a2,2,0,0,1,.6-.95,1.4,1.4,0,0,1,.9-.34,1.52,1.52,0,0,1,.55.08Z"/><path d="M178.09,90.08V89a2.2,2.2,0,0,0,.45.3,3.88,3.88,0,0,0,.56.23,4.34,4.34,0,0,0,.6.14,3.74,3.74,0,0,0,.55,0,2.2,2.2,0,0,0,1.3-.32,1.12,1.12,0,0,0,.43-.93,1.05,1.05,0,0,0-.15-.57,1.46,1.46,0,0,0-.39-.44,4.14,4.14,0,0,0-.6-.38l-.74-.39c-.28-.14-.55-.28-.79-.43a2.83,2.83,0,0,1-.63-.48,2.07,2.07,0,0,1-.43-.6,1.87,1.87,0,0,1-.15-.78,1.85,1.85,0,0,1,.24-1,2.12,2.12,0,0,1,.63-.67,2.62,2.62,0,0,1,.9-.39,3.86,3.86,0,0,1,1-.13,4,4,0,0,1,1.74.28v1.06a3.55,3.55,0,0,0-2.45-.43,1.81,1.81,0,0,0-.55.22,1.15,1.15,0,0,0-.39.37,1,1,0,0,0-.16.56,1.13,1.13,0,0,0,.12.54,1.43,1.43,0,0,0,.34.41,3.75,3.75,0,0,0,.55.36l.74.38a9.13,9.13,0,0,1,.82.45,3.3,3.3,0,0,1,.68.52,2.12,2.12,0,0,1,.46.63,1.74,1.74,0,0,1,.18.8,2,2,0,0,1-.24,1,1.84,1.84,0,0,1-.63.67,2.56,2.56,0,0,1-.91.37,4.79,4.79,0,0,1-1.09.12l-.47,0-.57-.09a4.58,4.58,0,0,1-.56-.15A1.76,1.76,0,0,1,178.09,90.08Z"/><path d="M186.56,90.54a2.65,2.65,0,0,1-2-.81,3,3,0,0,1-.76-2.13,3.12,3.12,0,0,1,.79-2.27,2.86,2.86,0,0,1,2.14-.81,2.59,2.59,0,0,1,2,.79,3.15,3.15,0,0,1,.72,2.2,3.08,3.08,0,0,1-.78,2.2A2.73,2.73,0,0,1,186.56,90.54Zm.07-5.25a1.75,1.75,0,0,0-1.4.61,2.45,2.45,0,0,0-.52,1.66,2.33,2.33,0,0,0,.52,1.61,1.76,1.76,0,0,0,1.4.59,1.68,1.68,0,0,0,1.37-.57,3.09,3.09,0,0,0,0-3.31A1.67,1.67,0,0,0,186.63,85.29Z"/><path d="M195.38,90.4h-.92V87.13c0-1.23-.44-1.84-1.33-1.84a1.5,1.5,0,0,0-1.15.52,2,2,0,0,0-.45,1.32V90.4h-.92V84.65h.92v1h0a2.08,2.08,0,0,1,1.89-1.09,1.74,1.74,0,0,1,1.44.61,2.68,2.68,0,0,1,.5,1.76Z"/><path d="M201.74,90.4h-.92v-1h0a2.32,2.32,0,0,1-3.71.34,3.15,3.15,0,0,1-.65-2.11,3.42,3.42,0,0,1,.72-2.28,2.37,2.37,0,0,1,1.91-.86,1.85,1.85,0,0,1,1.73.93h0V81.89h.92Zm-.92-2.6V87a1.62,1.62,0,0,0-.46-1.18,1.57,1.57,0,0,0-1.17-.49,1.62,1.62,0,0,0-1.33.62,2.72,2.72,0,0,0-.48,1.71,2.45,2.45,0,0,0,.47,1.57,1.5,1.5,0,0,0,1.24.57,1.57,1.57,0,0,0,1.25-.55A2.08,2.08,0,0,0,200.82,87.8Z"/><path d="M207.94,87.76h-4.06a2.12,2.12,0,0,0,.51,1.48,1.79,1.79,0,0,0,1.36.52,2.81,2.81,0,0,0,1.79-.64V90a3.32,3.32,0,0,1-2,.55,2.42,2.42,0,0,1-1.91-.78,3.2,3.2,0,0,1-.7-2.21,3.16,3.16,0,0,1,.76-2.18,2.43,2.43,0,0,1,1.89-.85,2.15,2.15,0,0,1,1.75.73,3.06,3.06,0,0,1,.62,2ZM207,87a1.86,1.86,0,0,0-.38-1.24,1.29,1.29,0,0,0-1.05-.45,1.49,1.49,0,0,0-1.11.47,2.13,2.13,0,0,0-.56,1.22Z"/><path d="M211.45,90.54a2.67,2.67,0,0,1-2-.81,3,3,0,0,1-.76-2.13,3.12,3.12,0,0,1,.79-2.27,2.86,2.86,0,0,1,2.14-.81,2.57,2.57,0,0,1,2,.79,3.15,3.15,0,0,1,.72,2.2,3.08,3.08,0,0,1-.78,2.2A2.73,2.73,0,0,1,211.45,90.54Zm.06-5.25a1.75,1.75,0,0,0-1.4.61,2.5,2.5,0,0,0-.52,1.66,2.33,2.33,0,0,0,.53,1.61,1.73,1.73,0,0,0,1.39.59,1.7,1.7,0,0,0,1.38-.57,3.09,3.09,0,0,0,0-3.31A1.69,1.69,0,0,0,211.51,85.29Z"/><path d="M157,55.89v-8h2.23q4.25,0,4.25,3.93a3.93,3.93,0,0,1-1.18,3,4.36,4.36,0,0,1-3.16,1.13Zm.95-7.2V55h1.2a3.39,3.39,0,0,0,2.46-.85,3.15,3.15,0,0,0,.88-2.4c0-2.06-1.09-3.1-3.29-3.1Z"/><path d="M169.25,53.25h-4.06a2.12,2.12,0,0,0,.51,1.48,1.77,1.77,0,0,0,1.36.52,2.83,2.83,0,0,0,1.79-.64v.87a3.42,3.42,0,0,1-2,.55,2.42,2.42,0,0,1-1.91-.78,3.2,3.2,0,0,1-.7-2.21,3.16,3.16,0,0,1,.76-2.19,2.45,2.45,0,0,1,1.89-.84,2.16,2.16,0,0,1,1.75.73,3.06,3.06,0,0,1,.62,2Zm-.95-.78a1.86,1.86,0,0,0-.38-1.24,1.3,1.3,0,0,0-1-.45,1.49,1.49,0,0,0-1.11.47,2.13,2.13,0,0,0-.56,1.22Z"/><path d="M174.87,50.14l-2.29,5.75h-.9l-2.18-5.75h1L172,54.32a4,4,0,0,1,.2.8h0a4.46,4.46,0,0,1,.18-.78l1.53-4.2Z"/><path d="M178,56a2.67,2.67,0,0,1-2-.81,3,3,0,0,1-.76-2.13,3.12,3.12,0,0,1,.79-2.27,2.86,2.86,0,0,1,2.14-.81,2.57,2.57,0,0,1,2,.79,3.15,3.15,0,0,1,.72,2.2,3.08,3.08,0,0,1-.78,2.2A2.73,2.73,0,0,1,178,56Zm.06-5.25a1.72,1.72,0,0,0-1.4.61,2.48,2.48,0,0,0-.52,1.66,2.33,2.33,0,0,0,.53,1.61,1.73,1.73,0,0,0,1.39.59,1.68,1.68,0,0,0,1.38-.58A2.49,2.49,0,0,0,179.9,53a2.55,2.55,0,0,0-.48-1.66A1.69,1.69,0,0,0,178,50.78Z"/><path d="M182.94,55.89H182V47.38h.92Z"/><path d="M189.17,55.89h-.92V55h0A1.9,1.9,0,0,1,186.45,56c-1.37,0-2-.82-2-2.45V50.14h.91v3.29c0,1.22.47,1.82,1.4,1.82a1.4,1.4,0,0,0,1.1-.49,1.91,1.91,0,0,0,.44-1.3V50.14h.92Z"/><path d="M194.66,55.63a3,3,0,0,1-1.57.4,2.64,2.64,0,0,1-2-.8,2.94,2.94,0,0,1-.75-2.08,3.21,3.21,0,0,1,.81-2.28,2.88,2.88,0,0,1,2.18-.86,3,3,0,0,1,1.33.28v.94a2.32,2.32,0,0,0-1.37-.45,1.81,1.81,0,0,0-1.44.64,2.36,2.36,0,0,0-.57,1.65,2.3,2.3,0,0,0,.53,1.6,1.84,1.84,0,0,0,1.43.58,2.25,2.25,0,0,0,1.41-.5Z"/><path d="M196.24,48.68a.57.57,0,0,1-.42-.16.58.58,0,0,1-.18-.43.57.57,0,0,1,.18-.43.54.54,0,0,1,.42-.17.57.57,0,0,1,.43.17.6.6,0,0,1,.17.43.61.61,0,0,1-.17.42A.57.57,0,0,1,196.24,48.68Zm.45,7.21h-.92V50.14h.92Z"/><path d="M200.67,56a2.67,2.67,0,0,1-2-.81,3,3,0,0,1-.76-2.13,3.12,3.12,0,0,1,.79-2.27A2.86,2.86,0,0,1,200.8,50a2.57,2.57,0,0,1,2,.79,3.15,3.15,0,0,1,.72,2.2,3.08,3.08,0,0,1-.78,2.2A2.73,2.73,0,0,1,200.67,56Zm.06-5.25a1.72,1.72,0,0,0-1.4.61,2.48,2.48,0,0,0-.52,1.66,2.33,2.33,0,0,0,.53,1.61,1.73,1.73,0,0,0,1.39.59,1.68,1.68,0,0,0,1.38-.58,2.49,2.49,0,0,0,.48-1.64,2.55,2.55,0,0,0-.48-1.66A1.69,1.69,0,0,0,200.73,50.78Z"/><path d="M209.49,55.89h-.92V52.61c0-1.22-.45-1.83-1.34-1.83a1.46,1.46,0,0,0-1.14.52,2,2,0,0,0-.45,1.31v3.28h-.93V50.14h.93v1h0A2.06,2.06,0,0,1,207.54,50a1.77,1.77,0,0,1,1.45.61,2.71,2.71,0,0,1,.5,1.76Z"/><path d="M215.56,53.25H211.5a2.12,2.12,0,0,0,.51,1.48,1.79,1.79,0,0,0,1.36.52,2.83,2.83,0,0,0,1.79-.64v.87a3.42,3.42,0,0,1-2,.55,2.42,2.42,0,0,1-1.91-.78,3.68,3.68,0,0,1,.06-4.4,2.45,2.45,0,0,1,1.89-.84,2.16,2.16,0,0,1,1.75.73,3.06,3.06,0,0,1,.62,2Zm-.95-.78a1.86,1.86,0,0,0-.38-1.24,1.29,1.29,0,0,0-1-.45,1.49,1.49,0,0,0-1.11.47,2.13,2.13,0,0,0-.56,1.22Z"/><path d="M216.31,55.69v-1a2.74,2.74,0,0,0,1.66.55c.81,0,1.21-.27,1.21-.81a.71.71,0,0,0-.1-.39,1.06,1.06,0,0,0-.28-.28,2.07,2.07,0,0,0-.42-.22l-.51-.21a6.26,6.26,0,0,1-.67-.3,1.86,1.86,0,0,1-.49-.35,1.6,1.6,0,0,1-.29-.44,1.72,1.72,0,0,1-.1-.58,1.37,1.37,0,0,1,.19-.71,1.65,1.65,0,0,1,.49-.53,2.28,2.28,0,0,1,.71-.31,2.75,2.75,0,0,1,.82-.11,3.16,3.16,0,0,1,1.33.26v.93a2.58,2.58,0,0,0-1.46-.42,1.6,1.6,0,0,0-.46.06,1.2,1.2,0,0,0-.36.17.68.68,0,0,0-.23.25.62.62,0,0,0-.08.33.74.74,0,0,0,.08.38.76.76,0,0,0,.24.27,1.51,1.51,0,0,0,.38.21l.51.21.69.3a2.18,2.18,0,0,1,.51.35,1.54,1.54,0,0,1,.33.44,1.4,1.4,0,0,1,.12.6,1.49,1.49,0,0,1-.19.75,1.77,1.77,0,0,1-.5.52,2.4,2.4,0,0,1-.73.31,4,4,0,0,1-.86.1A3.39,3.39,0,0,1,216.31,55.69Z"/><path d="M229,55.89h-.92v-1h0a2.13,2.13,0,0,1-2,1.11,2.16,2.16,0,0,1-1.73-.77,3.21,3.21,0,0,1-.65-2.11,3.42,3.42,0,0,1,.72-2.28,2.36,2.36,0,0,1,1.92-.86,1.84,1.84,0,0,1,1.72.93h0V47.38H229Zm-.92-2.6v-.84a1.62,1.62,0,0,0-.46-1.18,1.5,1.5,0,0,0-1.16-.49,1.59,1.59,0,0,0-1.33.62,2.72,2.72,0,0,0-.48,1.71,2.45,2.45,0,0,0,.46,1.57,1.51,1.51,0,0,0,1.24.57,1.56,1.56,0,0,0,1.25-.55A2.08,2.08,0,0,0,228.1,53.29Z"/><path d="M235.22,53.25h-4.06a2.17,2.17,0,0,0,.52,1.48,1.77,1.77,0,0,0,1.36.52,2.78,2.78,0,0,0,1.78-.64v.87a3.36,3.36,0,0,1-2,.55,2.46,2.46,0,0,1-1.92-.78,3.25,3.25,0,0,1-.69-2.21,3.16,3.16,0,0,1,.76-2.19,2.45,2.45,0,0,1,1.89-.84,2.14,2.14,0,0,1,1.74.73,3,3,0,0,1,.62,2Zm-.94-.78a1.81,1.81,0,0,0-.39-1.24,1.29,1.29,0,0,0-1-.45,1.48,1.48,0,0,0-1.1.47,2.14,2.14,0,0,0-.57,1.22Z"/><path d="M178.61,68.39h-.92V59.88h.92Z"/><path d="M181.11,68.39h-.92V59.88h.92Z"/><path d="M186.8,68.39h-.92V67.5h0a1.94,1.94,0,0,1-1.77,1,1.85,1.85,0,0,1-1.34-.46,1.54,1.54,0,0,1-.49-1.2c0-1.08.63-1.7,1.9-1.88l1.72-.24c0-1-.39-1.47-1.18-1.47a2.86,2.86,0,0,0-1.88.71v-.94a3.58,3.58,0,0,1,2-.54c1.35,0,2,.71,2,2.14Zm-.92-2.91-1.38.2a2.3,2.3,0,0,0-1,.31.91.91,0,0,0-.32.81.89.89,0,0,0,.3.69,1.18,1.18,0,0,0,.8.26,1.49,1.49,0,0,0,1.13-.48,1.73,1.73,0,0,0,.44-1.21Z"/><path d="M196.42,68.39h-.92v-3.3a2.48,2.48,0,0,0-.3-1.38,1.14,1.14,0,0,0-1-.43,1.22,1.22,0,0,0-1,.54,2,2,0,0,0-.42,1.29v3.28h-.92V65c0-1.13-.43-1.7-1.3-1.7a1.2,1.2,0,0,0-1,.51,2.06,2.06,0,0,0-.4,1.32v3.28h-.92V62.64h.92v.91h0a2,2,0,0,1,1.78-1,1.67,1.67,0,0,1,1,.33,1.65,1.65,0,0,1,.6.86,2.06,2.06,0,0,1,1.91-1.19c1.26,0,1.9.78,1.9,2.34Z"/><path d="M202,68.39h-.93V67.5h0a1.94,1.94,0,0,1-1.77,1,1.85,1.85,0,0,1-1.34-.46,1.57,1.57,0,0,1-.49-1.2c0-1.08.64-1.7,1.9-1.88l1.72-.24c0-1-.39-1.47-1.18-1.47A2.86,2.86,0,0,0,198,64v-.94a3.58,3.58,0,0,1,2-.54c1.35,0,2,.71,2,2.14Zm-.93-2.91-1.38.2a2.3,2.3,0,0,0-1,.31.93.93,0,0,0-.32.81.89.89,0,0,0,.3.69,1.18,1.18,0,0,0,.8.26,1.49,1.49,0,0,0,1.13-.48,1.69,1.69,0,0,0,.44-1.21Z"/><path d="M208.34,68.39h-.92v-1h0a2.32,2.32,0,0,1-3.71.34,3.21,3.21,0,0,1-.65-2.11,3.42,3.42,0,0,1,.72-2.28,2.35,2.35,0,0,1,1.91-.86,1.85,1.85,0,0,1,1.73.93h0V59.88h.92Zm-.92-2.6V65a1.62,1.62,0,0,0-.46-1.18,1.53,1.53,0,0,0-1.17-.49,1.59,1.59,0,0,0-1.32.62,2.72,2.72,0,0,0-.49,1.71,2.45,2.45,0,0,0,.47,1.57,1.51,1.51,0,0,0,1.24.57,1.57,1.57,0,0,0,1.25-.55A2.08,2.08,0,0,0,207.42,65.79Z"/><path d="M214,68.39h-.92V67.5h0a1.94,1.94,0,0,1-1.77,1,1.85,1.85,0,0,1-1.34-.46,1.54,1.54,0,0,1-.49-1.2c0-1.08.63-1.7,1.9-1.88l1.72-.24c0-1-.39-1.47-1.18-1.47a2.86,2.86,0,0,0-1.88.71v-.94a3.58,3.58,0,0,1,2-.54c1.35,0,2,.71,2,2.14Zm-.92-2.91-1.38.2a2.3,2.3,0,0,0-1,.31.91.91,0,0,0-.33.81.89.89,0,0,0,.3.69,1.23,1.23,0,0,0,.81.26,1.49,1.49,0,0,0,1.13-.48,1.73,1.73,0,0,0,.44-1.21Z"/><path d="M141.59,4.16h-3.14V6.69h2.9V7.87h-2.9v3.51h-1.39V3h4.53Z"/><path d="M147.14,11.38h-1.32v-.93h0A2,2,0,0,1,144,11.52a1.9,1.9,0,0,1-1.38-.48,1.65,1.65,0,0,1-.5-1.27q0-1.69,1.95-2l1.78-.25c0-.86-.4-1.28-1.21-1.28a2.91,2.91,0,0,0-1.94.73V5.8a4.27,4.27,0,0,1,2.19-.56,2,2,0,0,1,2.28,2.24Zm-1.32-2.94-1.26.17a2,2,0,0,0-.88.29.83.83,0,0,0-.29.73.8.8,0,0,0,.27.62,1.05,1.05,0,0,0,.73.24,1.35,1.35,0,0,0,1-.43,1.57,1.57,0,0,0,.4-1.1Z"/><path d="M148.42,11.2V9.94a2.76,2.76,0,0,0,1.68.58c.82,0,1.23-.25,1.23-.73a.58.58,0,0,0-.1-.35.89.89,0,0,0-.29-.25,1.63,1.63,0,0,0-.42-.2l-.54-.2a6,6,0,0,1-.67-.31,2.13,2.13,0,0,1-.49-.38,1.2,1.2,0,0,1-.29-.47,1.63,1.63,0,0,1-.1-.61,1.41,1.41,0,0,1,.2-.77,1.8,1.8,0,0,1,.55-.55,2.45,2.45,0,0,1,.79-.34,3.39,3.39,0,0,1,.91-.12,4.25,4.25,0,0,1,1.48.25V6.68a2.48,2.48,0,0,0-1.45-.43,2.26,2.26,0,0,0-.47,0,1.6,1.6,0,0,0-.35.15.81.81,0,0,0-.23.22.6.6,0,0,0-.08.29.67.67,0,0,0,.08.33.91.91,0,0,0,.24.24,2.36,2.36,0,0,0,.39.19l.52.18c.26.11.49.22.69.32a2.4,2.4,0,0,1,.53.38,1.58,1.58,0,0,1,.33.48,1.56,1.56,0,0,1,.12.64,1.49,1.49,0,0,1-.21.8,1.67,1.67,0,0,1-.56.56,2.89,2.89,0,0,1-.82.34,4.7,4.7,0,0,1-2.67-.22Z"/><path d="M159.05,8.75H155a1.75,1.75,0,0,0,.51,1.29,1.93,1.93,0,0,0,1.35.45,3,3,0,0,0,1.76-.58V11a4.08,4.08,0,0,1-2.17.51,2.72,2.72,0,0,1-2.08-.81,3.3,3.3,0,0,1-.75-2.3,3.22,3.22,0,0,1,.83-2.29,2.74,2.74,0,0,1,2.06-.88,2.4,2.4,0,0,1,1.91.79,3.34,3.34,0,0,1,.67,2.2Zm-1.31-1a1.76,1.76,0,0,0-.35-1.14,1.17,1.17,0,0,0-.94-.41,1.33,1.33,0,0,0-1,.43,2,2,0,0,0-.5,1.12Z"/><path d="M160,11.2V9.94a2.76,2.76,0,0,0,1.68.58c.82,0,1.23-.25,1.23-.73a.58.58,0,0,0-.1-.35.89.89,0,0,0-.29-.25,1.63,1.63,0,0,0-.42-.2l-.54-.2a6,6,0,0,1-.67-.31,2.13,2.13,0,0,1-.49-.38,1.35,1.35,0,0,1-.3-.47A1.85,1.85,0,0,1,160,7a1.41,1.41,0,0,1,.21-.77,1.8,1.8,0,0,1,.55-.55,2.45,2.45,0,0,1,.79-.34,3.37,3.37,0,0,1,.9-.12,4.31,4.31,0,0,1,1.49.25V6.68a2.48,2.48,0,0,0-1.45-.43,2.26,2.26,0,0,0-.47,0,1.42,1.42,0,0,0-.35.15.7.7,0,0,0-.23.22.6.6,0,0,0-.08.29.67.67,0,0,0,.08.33.78.78,0,0,0,.24.24,2.36,2.36,0,0,0,.39.19l.52.18c.26.11.49.22.69.32a2.4,2.4,0,0,1,.53.38,1.58,1.58,0,0,1,.33.48,1.56,1.56,0,0,1,.12.64,1.49,1.49,0,0,1-.21.8,1.67,1.67,0,0,1-.56.56,2.89,2.89,0,0,1-.82.34,4.31,4.31,0,0,1-1,.1A4.23,4.23,0,0,1,160,11.2Z"/><path d="M57.16,76.45V75a2.31,2.31,0,0,0,.46.31,2.87,2.87,0,0,0,.57.24,3.19,3.19,0,0,0,.59.15,2.8,2.8,0,0,0,.55,0,2.29,2.29,0,0,0,1.31-.29,1,1,0,0,0,.44-.85.91.91,0,0,0-.15-.52,1.52,1.52,0,0,0-.4-.4,3.78,3.78,0,0,0-.61-.35L59.18,73c-.29-.15-.55-.3-.8-.46a3.37,3.37,0,0,1-.64-.52,2.12,2.12,0,0,1-.43-.64,2.17,2.17,0,0,1-.15-.84,2,2,0,0,1,.26-1,2.22,2.22,0,0,1,.71-.72,3.15,3.15,0,0,1,1-.42,4.79,4.79,0,0,1,1.13-.14,4.64,4.64,0,0,1,1.93.3v1.38a3.1,3.1,0,0,0-1.84-.52,3.18,3.18,0,0,0-.62.06,1.79,1.79,0,0,0-.55.2,1.21,1.21,0,0,0-.4.34.85.85,0,0,0-.15.51,1,1,0,0,0,.12.49,1.3,1.3,0,0,0,.34.37,2.58,2.58,0,0,0,.55.33c.22.11.47.23.75.35s.57.32.83.48a4.32,4.32,0,0,1,.69.56,2.43,2.43,0,0,1,.47.68,2,2,0,0,1,.17.84,2.11,2.11,0,0,1-.26,1.08,2.16,2.16,0,0,1-.69.72,3.13,3.13,0,0,1-1,.39,5.19,5.19,0,0,1-1.2.13l-.52,0-.63-.1a6,6,0,0,1-.61-.15A1.81,1.81,0,0,1,57.16,76.45Z"/><path d="M66.59,76.93a3,3,0,0,1-2.22-.84,3.06,3.06,0,0,1-.83-2.23,3,3,0,0,1,3.2-3.21,2.9,2.9,0,0,1,2.19.82,3.21,3.21,0,0,1,.78,2.29,3.14,3.14,0,0,1-.84,2.3A3.05,3.05,0,0,1,66.59,76.93Zm.06-5.2a1.56,1.56,0,0,0-1.26.56,2.31,2.31,0,0,0-.46,1.53,2.22,2.22,0,0,0,.47,1.49,1.57,1.57,0,0,0,1.25.54,1.52,1.52,0,0,0,1.24-.53,2.41,2.41,0,0,0,.43-1.52,2.44,2.44,0,0,0-.43-1.53A1.5,1.5,0,0,0,66.65,71.73Z"/><path d="M76.44,76.79H75.08V73.41c0-1.12-.4-1.69-1.19-1.69a1.32,1.32,0,0,0-1,.47,1.72,1.72,0,0,0-.4,1.18v3.42H71.09v-6h1.37v1h0a2.15,2.15,0,0,1,2-1.13,1.81,1.81,0,0,1,1.49.63,2.84,2.84,0,0,1,.52,1.84Z"/><path d="M83.55,76.79H82.19v-1h0a2.34,2.34,0,0,1-3.79.35,3.31,3.31,0,0,1-.67-2.19,3.67,3.67,0,0,1,.74-2.39,2.42,2.42,0,0,1,2-.89,1.88,1.88,0,0,1,1.76,1h0V67.9h1.36ZM82.21,74v-.78a1.49,1.49,0,0,0-.42-1.08,1.37,1.37,0,0,0-1.06-.45,1.42,1.42,0,0,0-1.19.57,2.48,2.48,0,0,0-.44,1.58,2.26,2.26,0,0,0,.42,1.44,1.37,1.37,0,0,0,1.13.53,1.42,1.42,0,0,0,1.13-.51A1.94,1.94,0,0,0,82.21,74Z"/><path d="M90.41,74.16H86.32a1.69,1.69,0,0,0,.51,1.28,1.91,1.91,0,0,0,1.34.45,3,3,0,0,0,1.77-.57v1.09a4,4,0,0,1-2.17.52,2.69,2.69,0,0,1-2.08-.82,3.27,3.27,0,0,1-.75-2.3,3.21,3.21,0,0,1,.83-2.28,2.7,2.7,0,0,1,2.06-.88,2.35,2.35,0,0,1,1.9.79,3.26,3.26,0,0,1,.68,2.19Zm-1.32-1a1.71,1.71,0,0,0-.34-1.14,1.14,1.14,0,0,0-.94-.41,1.3,1.3,0,0,0-1,.43,1.91,1.91,0,0,0-.5,1.12Z"/><path d="M94.36,76.93a3,3,0,0,1-2.22-.84,3.05,3.05,0,0,1-.82-2.23,3.13,3.13,0,0,1,.86-2.36,3.17,3.17,0,0,1,2.33-.85,2.87,2.87,0,0,1,2.19.82,3.22,3.22,0,0,1,.79,2.29,3.15,3.15,0,0,1-.85,2.3A3,3,0,0,1,94.36,76.93Zm.07-5.2a1.56,1.56,0,0,0-1.26.56,2.31,2.31,0,0,0-.47,1.53,2.22,2.22,0,0,0,.47,1.49,1.59,1.59,0,0,0,1.26.54,1.51,1.51,0,0,0,1.23-.53,2.35,2.35,0,0,0,.43-1.52,2.38,2.38,0,0,0-.43-1.53A1.49,1.49,0,0,0,94.43,71.73Z"/><path d="M107.62,76.79h-1.36v-1h0a2.34,2.34,0,0,1-3.79.35,3.31,3.31,0,0,1-.67-2.19,3.67,3.67,0,0,1,.74-2.39,2.42,2.42,0,0,1,2-.89,1.88,1.88,0,0,1,1.76,1h0V67.9h1.36ZM106.28,74v-.78a1.49,1.49,0,0,0-.42-1.08,1.37,1.37,0,0,0-1.06-.45,1.42,1.42,0,0,0-1.19.57,2.48,2.48,0,0,0-.44,1.58,2.26,2.26,0,0,0,.42,1.44,1.37,1.37,0,0,0,1.13.53,1.42,1.42,0,0,0,1.13-.51A1.94,1.94,0,0,0,106.28,74Z"/><path d="M114.48,74.16h-4.09a1.69,1.69,0,0,0,.51,1.28,1.91,1.91,0,0,0,1.35.45,3,3,0,0,0,1.76-.57v1.09a4,4,0,0,1-2.17.52,2.69,2.69,0,0,1-2.08-.82,3.27,3.27,0,0,1-.75-2.3,3.21,3.21,0,0,1,.83-2.28,2.7,2.7,0,0,1,2.06-.88,2.35,2.35,0,0,1,1.9.79,3.26,3.26,0,0,1,.68,2.19Zm-1.31-1a1.76,1.76,0,0,0-.35-1.14,1.14,1.14,0,0,0-.94-.41,1.3,1.3,0,0,0-1,.43,1.91,1.91,0,0,0-.5,1.12Z"/><path d="M123.94,76.79h-4.72V68.38h4.53v1.19h-3.13V72h2.89v1.18h-2.89v2.48h3.32Z"/><path d="M129.48,68.38l-4.06,9.8h-1.24l4-9.8Z"/><path d="M130,76.45V75a2.31,2.31,0,0,0,.46.31,2.87,2.87,0,0,0,.57.24,3.19,3.19,0,0,0,.59.15,2.8,2.8,0,0,0,.55,0,2.29,2.29,0,0,0,1.31-.29,1,1,0,0,0,.43-.85.9.9,0,0,0-.14-.52,1.52,1.52,0,0,0-.4-.4,3.78,3.78,0,0,0-.61-.35L132,73c-.29-.15-.55-.3-.8-.46a3.37,3.37,0,0,1-.64-.52,2.12,2.12,0,0,1-.43-.64,2.17,2.17,0,0,1-.16-.84,2,2,0,0,1,.27-1,2.29,2.29,0,0,1,.7-.72,3.31,3.31,0,0,1,1-.42,4.79,4.79,0,0,1,1.13-.14,4.64,4.64,0,0,1,1.93.3v1.38a3.1,3.1,0,0,0-1.84-.52,3.18,3.18,0,0,0-.62.06,1.79,1.79,0,0,0-.55.2,1.21,1.21,0,0,0-.4.34.85.85,0,0,0-.15.51,1,1,0,0,0,.12.49,1.3,1.3,0,0,0,.34.37,2.58,2.58,0,0,0,.55.33c.22.11.47.23.75.35s.57.32.83.48a4.32,4.32,0,0,1,.69.56,2.43,2.43,0,0,1,.47.68,2,2,0,0,1,.17.84,2.11,2.11,0,0,1-.26,1.08,2.16,2.16,0,0,1-.69.72,3.13,3.13,0,0,1-1,.39,5.19,5.19,0,0,1-1.2.13l-.52,0-.63-.1a6,6,0,0,1-.61-.15A1.81,1.81,0,0,1,130,76.45Z"/><path d="M11.13,41.2A3.8,3.8,0,0,1,8.22,40,4.34,4.34,0,0,1,7.12,37a4.58,4.58,0,0,1,1.12-3.23,3.89,3.89,0,0,1,3-1.21,3.69,3.69,0,0,1,2.85,1.17,4.36,4.36,0,0,1,1.08,3.07A4.59,4.59,0,0,1,14.08,40,3.8,3.8,0,0,1,11.13,41.2Zm.06-7.45a2.32,2.32,0,0,0-1.88.86,4,4,0,0,0,0,4.52,2.27,2.27,0,0,0,1.84.86A2.4,2.4,0,0,0,13,39.17a3.41,3.41,0,0,0,.69-2.28,3.54,3.54,0,0,0-.67-2.32A2.29,2.29,0,0,0,11.19,33.75Z"/><path d="M18,40.18h0v3.64H16.58V35.06h1.36v1.06h0a2.24,2.24,0,0,1,2-1.2,2.13,2.13,0,0,1,1.78.81,3.32,3.32,0,0,1,.64,2.15,3.73,3.73,0,0,1-.72,2.4,2.36,2.36,0,0,1-2,.91A2,2,0,0,1,18,40.18Zm0-2.37v.75a1.6,1.6,0,0,0,.42,1.11,1.47,1.47,0,0,0,2.25-.13A2.79,2.79,0,0,0,21,37.89a2.18,2.18,0,0,0-.4-1.38,1.31,1.31,0,0,0-1.09-.5,1.49,1.49,0,0,0-1.17.51A2,2,0,0,0,17.93,37.81Z"/><path d="M28.89,38.43H24.8a1.77,1.77,0,0,0,.51,1.29,1.93,1.93,0,0,0,1.35.45,2.9,2.9,0,0,0,1.76-.58v1.1a4.05,4.05,0,0,1-2.17.51,2.68,2.68,0,0,1-2.07-.81,3.29,3.29,0,0,1-.76-2.3,3.18,3.18,0,0,1,.83-2.28,2.72,2.72,0,0,1,2.06-.89,2.4,2.4,0,0,1,1.91.79,3.29,3.29,0,0,1,.67,2.2Zm-1.31-1a1.71,1.71,0,0,0-.35-1.14,1.14,1.14,0,0,0-.93-.4,1.34,1.34,0,0,0-1,.42,2,2,0,0,0-.5,1.12Z"/><path d="M33.67,36.36a1.13,1.13,0,0,0-.71-.19,1.22,1.22,0,0,0-1,.54,2.43,2.43,0,0,0-.4,1.48v2.87H30.19v-6h1.36V36.3h0a2.14,2.14,0,0,1,.61-1A1.41,1.41,0,0,1,33.1,35a1.22,1.22,0,0,1,.57.11Z"/><path d="M39.23,41.06H37.92v-.93h0a2,2,0,0,1-1.82,1.07,1.94,1.94,0,0,1-1.39-.48,1.69,1.69,0,0,1-.5-1.27c0-1.13.65-1.79,2-2l1.78-.25c0-.86-.41-1.28-1.22-1.28a2.85,2.85,0,0,0-1.93.74V35.49A4.16,4.16,0,0,1,37,34.92a2,2,0,0,1,2.27,2.24Zm-1.31-2.94-1.26.17a2,2,0,0,0-.88.29.83.83,0,0,0-.3.73.77.77,0,0,0,.28.62,1.05,1.05,0,0,0,.73.24,1.33,1.33,0,0,0,1-.43,1.52,1.52,0,0,0,.41-1.1Z"/><path d="M45.19,40.79a3.33,3.33,0,0,1-1.71.41,2.85,2.85,0,0,1-2.15-.83,3,3,0,0,1-.83-2.17,3.26,3.26,0,0,1,.89-2.38,3.13,3.13,0,0,1,2.36-.9,3.46,3.46,0,0,1,1.44.29v1.27A2.14,2.14,0,0,0,43.86,36a1.86,1.86,0,0,0-1.42.58,2.17,2.17,0,0,0-.55,1.53,2.06,2.06,0,0,0,.52,1.47,1.85,1.85,0,0,0,1.39.54,2.2,2.2,0,0,0,1.39-.53Z"/><path d="M47.22,33.8a.84.84,0,0,1-.57-.21.76.76,0,0,1,0-1.11.8.8,0,0,1,.57-.22.83.83,0,0,1,.59.22.73.73,0,0,1,.24.56.71.71,0,0,1-.24.54A.83.83,0,0,1,47.22,33.8Zm.67,7.26H46.53v-6h1.36Z"/><path d="M52.33,41.2a3,3,0,0,1-2.22-.84,3,3,0,0,1-.83-2.23,3,3,0,0,1,3.2-3.21,2.9,2.9,0,0,1,2.19.83A3.19,3.19,0,0,1,55.45,38a3.16,3.16,0,0,1-.84,2.3A3,3,0,0,1,52.33,41.2ZM52.39,36a1.55,1.55,0,0,0-1.26.55,2.41,2.41,0,0,0-.46,1.54,2.19,2.19,0,0,0,.47,1.48,1.55,1.55,0,0,0,1.25.55,1.5,1.5,0,0,0,1.24-.54,2.38,2.38,0,0,0,.43-1.51,2.44,2.44,0,0,0-.43-1.53A1.5,1.5,0,0,0,52.39,36Z"/><path d="M62.18,41.06H60.82V37.68c0-1.12-.4-1.68-1.19-1.68a1.32,1.32,0,0,0-1,.47,1.71,1.71,0,0,0-.4,1.17v3.42H56.83v-6H58.2v1h0a2.14,2.14,0,0,1,2-1.14,1.82,1.82,0,0,1,1.49.64,2.82,2.82,0,0,1,.52,1.84Z"/><path d="M68.92,38.43H64.83a1.7,1.7,0,0,0,.51,1.29,1.91,1.91,0,0,0,1.34.45,2.93,2.93,0,0,0,1.77-.58v1.1a4.08,4.08,0,0,1-2.17.51,2.72,2.72,0,0,1-2.08-.81,3.28,3.28,0,0,1-.75-2.3,3.18,3.18,0,0,1,.83-2.28,2.71,2.71,0,0,1,2.06-.89,2.38,2.38,0,0,1,1.9.79,3.29,3.29,0,0,1,.68,2.2Zm-1.32-1a1.71,1.71,0,0,0-.34-1.14,1.16,1.16,0,0,0-.94-.4,1.32,1.32,0,0,0-1,.42,2,2,0,0,0-.5,1.12Z"/><path d="M69.84,40.88V39.62a2.74,2.74,0,0,0,1.68.58c.82,0,1.23-.25,1.23-.73a.58.58,0,0,0-.11-.35,1,1,0,0,0-.28-.25,2,2,0,0,0-.42-.2l-.54-.2a6,6,0,0,1-.67-.31,2.17,2.17,0,0,1-.49-.37,1.5,1.5,0,0,1-.3-.48,1.85,1.85,0,0,1-.1-.61,1.41,1.41,0,0,1,.21-.77,1.7,1.7,0,0,1,.55-.55,2.5,2.5,0,0,1,.78-.34,3.5,3.5,0,0,1,.91-.12,4.08,4.08,0,0,1,1.49.26v1.18a2.58,2.58,0,0,0-1.45-.43,2.26,2.26,0,0,0-.47,0,1.27,1.27,0,0,0-.35.15.63.63,0,0,0-.23.23.47.47,0,0,0-.08.29.57.57,0,0,0,.08.32.69.69,0,0,0,.24.24,2.36,2.36,0,0,0,.39.19l.52.18c.25.11.49.22.69.33a2.37,2.37,0,0,1,.53.37,1.58,1.58,0,0,1,.33.48,1.6,1.6,0,0,1,.12.65,1.46,1.46,0,0,1-.21.79,1.73,1.73,0,0,1-.57.57,3,3,0,0,1-.81.33,4.31,4.31,0,0,1-1,.1A4.06,4.06,0,0,1,69.84,40.88Z"/><path d="M9.12,53.88V52.62a2.72,2.72,0,0,0,1.68.58c.82,0,1.23-.25,1.23-.73a.58.58,0,0,0-.11-.35,1,1,0,0,0-.28-.25,2,2,0,0,0-.42-.2l-.55-.2a6.8,6.8,0,0,1-.66-.31,2.17,2.17,0,0,1-.49-.37,1.5,1.5,0,0,1-.3-.48,1.85,1.85,0,0,1-.1-.61,1.41,1.41,0,0,1,.21-.77,1.7,1.7,0,0,1,.55-.55,2.5,2.5,0,0,1,.78-.34,3.5,3.5,0,0,1,.91-.12,4.08,4.08,0,0,1,1.49.26v1.18a2.58,2.58,0,0,0-1.45-.43,2.19,2.19,0,0,0-.47,0,1.27,1.27,0,0,0-.35.15.63.63,0,0,0-.23.23.47.47,0,0,0-.08.29.57.57,0,0,0,.08.32.69.69,0,0,0,.24.24,2.36,2.36,0,0,0,.39.19l.52.18c.25.11.49.22.69.33a2.1,2.1,0,0,1,.52.37,1.45,1.45,0,0,1,.34.48,1.6,1.6,0,0,1,.12.65,1.46,1.46,0,0,1-.21.79,1.82,1.82,0,0,1-.57.57,3,3,0,0,1-.81.33,4.37,4.37,0,0,1-1,.1A4.06,4.06,0,0,1,9.12,53.88Z"/><path d="M15.35,46.8a.84.84,0,0,1-.57-.21.76.76,0,0,1,0-1.11.8.8,0,0,1,.57-.22.83.83,0,0,1,.59.22.73.73,0,0,1,.24.56.71.71,0,0,1-.24.54A.83.83,0,0,1,15.35,46.8ZM16,54.06H14.67v-6H16Z"/><path d="M23.14,54.06H21.78V50.68c0-1.12-.39-1.68-1.19-1.68a1.3,1.3,0,0,0-1,.47,1.71,1.71,0,0,0-.4,1.17v3.42H17.8v-6h1.37v1h0a2.14,2.14,0,0,1,1.94-1.14,1.84,1.84,0,0,1,1.5.64,2.88,2.88,0,0,1,.51,1.84Z"/><path d="M29.48,53.2h0v.86H28.1V45.18h1.36v3.94h0a2.24,2.24,0,0,1,2-1.2,2.15,2.15,0,0,1,1.78.81,3.37,3.37,0,0,1,.64,2.16,3.76,3.76,0,0,1-.72,2.41,2.39,2.39,0,0,1-2,.9A1.93,1.93,0,0,1,29.48,53.2Zm0-2.39v.75a1.6,1.6,0,0,0,.42,1.11,1.39,1.39,0,0,0,1.06.46,1.41,1.41,0,0,0,1.19-.59,2.79,2.79,0,0,0,.43-1.65,2.18,2.18,0,0,0-.4-1.38,1.31,1.31,0,0,0-1.09-.5,1.49,1.49,0,0,0-1.17.51A2,2,0,0,0,29.45,50.81Z"/><path d="M36.7,54.06H35.33V45.18H36.7Z"/><path d="M41.13,54.2a3,3,0,0,1-2.22-.84,3,3,0,0,1-.83-2.23,3,3,0,0,1,3.19-3.21,2.87,2.87,0,0,1,2.19.83,3.62,3.62,0,0,1-.06,4.59A3,3,0,0,1,41.13,54.2ZM41.19,49a1.55,1.55,0,0,0-1.26.55,2.36,2.36,0,0,0-.46,1.54,2.14,2.14,0,0,0,.47,1.48,1.55,1.55,0,0,0,1.25.55,1.46,1.46,0,0,0,1.23-.54,2.32,2.32,0,0,0,.43-1.51,2.38,2.38,0,0,0-.43-1.53A1.46,1.46,0,0,0,41.19,49Z"/><path d="M51.09,56.82H49.73V53h0a2.1,2.1,0,0,1-2,1.17,2.17,2.17,0,0,1-1.77-.8,3.32,3.32,0,0,1-.67-2.2A3.62,3.62,0,0,1,46,48.82a2.42,2.42,0,0,1,2-.9,1.85,1.85,0,0,1,1.74,1h0v-.84h1.36Zm-1.34-5.49v-.77a1.56,1.56,0,0,0-.42-1.1A1.4,1.4,0,0,0,48.26,49a1.44,1.44,0,0,0-1.19.56,2.58,2.58,0,0,0-.44,1.6,2.14,2.14,0,0,0,.43,1.43,1.33,1.33,0,0,0,1.09.53,1.45,1.45,0,0,0,1.16-.51A1.92,1.92,0,0,0,49.75,51.33Z"/><path d="M58.09,54.06H56.74v-1h0a2,2,0,0,1-1.84,1.09c-1.42,0-2.12-.85-2.12-2.55V48.06H54.1v3.45c0,1.08.42,1.62,1.25,1.62a1.27,1.27,0,0,0,1-.45,1.7,1.7,0,0,0,.39-1.16V48.06h1.35Z"/><path d="M64.94,51.43H60.85a1.74,1.74,0,0,0,.52,1.29,1.89,1.89,0,0,0,1.34.45,3,3,0,0,0,1.77-.58v1.1a4.08,4.08,0,0,1-2.17.51,2.69,2.69,0,0,1-2.08-.81,3.28,3.28,0,0,1-.75-2.3,3.14,3.14,0,0,1,.83-2.28,2.71,2.71,0,0,1,2.06-.89,2.38,2.38,0,0,1,1.9.79,3.29,3.29,0,0,1,.67,2.2Zm-1.31-1a1.76,1.76,0,0,0-.34-1.14,1.16,1.16,0,0,0-.94-.4,1.32,1.32,0,0,0-1,.42,2,2,0,0,0-.51,1.12Z"/><path d="M68.9,54.2a3,3,0,0,1-2.22-.84,3,3,0,0,1-.83-2.23,3,3,0,0,1,3.2-3.21,2.9,2.9,0,0,1,2.19.83A3.19,3.19,0,0,1,72,51a3.16,3.16,0,0,1-.84,2.3A3,3,0,0,1,68.9,54.2ZM69,49a1.55,1.55,0,0,0-1.26.55,2.41,2.41,0,0,0-.46,1.54,2.19,2.19,0,0,0,.47,1.48,1.55,1.55,0,0,0,1.25.55,1.5,1.5,0,0,0,1.24-.54,2.38,2.38,0,0,0,.43-1.51,2.44,2.44,0,0,0-.43-1.53A1.5,1.5,0,0,0,69,49Z"/><path d="M436.39,136.54A5.06,5.06,0,0,1,434,137a3.85,3.85,0,0,1-2.93-1.15,4.23,4.23,0,0,1-1.1-3,4.41,4.41,0,0,1,1.24-3.26,4.22,4.22,0,0,1,3.13-1.24,5.12,5.12,0,0,1,2,.35v1.38a3.57,3.57,0,0,0-1.87-.5,3,3,0,0,0-2.22.87,3.22,3.22,0,0,0-.84,2.33,3,3,0,0,0,.79,2.21,2.76,2.76,0,0,0,2.08.83,3.68,3.68,0,0,0,2.06-.57Z"/><path d="M440.49,137a3,3,0,0,1-2.22-.84,3,3,0,0,1-.82-2.23,3.16,3.16,0,0,1,.86-2.36,3.21,3.21,0,0,1,2.33-.85,2.87,2.87,0,0,1,2.19.83,3.2,3.2,0,0,1,.79,2.29,3.17,3.17,0,0,1-.85,2.3A3,3,0,0,1,440.49,137Zm.07-5.19a1.55,1.55,0,0,0-1.26.55,2.34,2.34,0,0,0-.47,1.54,2.19,2.19,0,0,0,.47,1.48,1.57,1.57,0,0,0,1.26.55,1.49,1.49,0,0,0,1.23-.54,2.32,2.32,0,0,0,.43-1.51,2.38,2.38,0,0,0-.43-1.53A1.49,1.49,0,0,0,440.56,131.84Z"/><path d="M446.36,136.89H445V128h1.36Z"/><path d="M452.74,136.89h-1.32V136h0a2,2,0,0,1-1.83,1.07,1.9,1.9,0,0,1-1.38-.48,1.65,1.65,0,0,1-.5-1.27q0-1.69,1.95-2l1.79-.25c0-.86-.41-1.28-1.22-1.28a2.91,2.91,0,0,0-1.94.73v-1.18a4.21,4.21,0,0,1,2.19-.57,2,2,0,0,1,2.28,2.24ZM451.43,134l-1.26.17a2,2,0,0,0-.89.29.83.83,0,0,0-.29.73.8.8,0,0,0,.27.62,1.07,1.07,0,0,0,.73.24,1.35,1.35,0,0,0,1-.43,1.56,1.56,0,0,0,.41-1.1Z"/><path d="M463.15,136.89h-1.36v-1h0a2.16,2.16,0,0,1-2,1.16,2.19,2.19,0,0,1-1.78-.8,3.38,3.38,0,0,1-.66-2.2,3.64,3.64,0,0,1,.73-2.38,2.41,2.41,0,0,1,2-.9,1.89,1.89,0,0,1,1.77,1h0V128h1.36Zm-1.34-2.74v-.78a1.53,1.53,0,0,0-.42-1.09,1.39,1.39,0,0,0-1.06-.44,1.43,1.43,0,0,0-1.2.57,2.51,2.51,0,0,0-.43,1.57,2.29,2.29,0,0,0,.42,1.45,1.36,1.36,0,0,0,1.12.53,1.4,1.4,0,0,0,1.14-.52A2,2,0,0,0,461.81,134.15Z"/><path d="M470,134.26h-4.09a1.7,1.7,0,0,0,.51,1.29,1.89,1.89,0,0,0,1.34.45,3,3,0,0,0,1.77-.58v1.1a4.08,4.08,0,0,1-2.17.51,2.7,2.7,0,0,1-2.08-.81,3.28,3.28,0,0,1-.75-2.3,3.22,3.22,0,0,1,.83-2.29,2.74,2.74,0,0,1,2.06-.88,2.38,2.38,0,0,1,1.9.79,3.29,3.29,0,0,1,.68,2.2Zm-1.32-1a1.76,1.76,0,0,0-.34-1.14,1.17,1.17,0,0,0-.94-.41,1.33,1.33,0,0,0-1,.43,2,2,0,0,0-.5,1.12Z"/><path d="M477.76,136.83a2.36,2.36,0,0,1-1.05.2,1.51,1.51,0,0,1-1.74-1.68V132h-1v-1.07h1V129.5l1.36-.38v1.77h1.43V132h-1.43v3a1.16,1.16,0,0,0,.19.76.83.83,0,0,0,.65.23.92.92,0,0,0,.59-.2Z"/><path d="M483.54,136.89h-1.32V136h0a2,2,0,0,1-1.82,1.07,1.94,1.94,0,0,1-1.39-.48,1.69,1.69,0,0,1-.5-1.27c0-1.13.65-1.79,2-2l1.78-.25c0-.86-.41-1.28-1.22-1.28a2.87,2.87,0,0,0-1.93.73v-1.18a4.16,4.16,0,0,1,2.19-.57,2,2,0,0,1,2.27,2.24ZM482.23,134l-1.26.17a1.93,1.93,0,0,0-.88.29.81.81,0,0,0-.3.73.8.8,0,0,0,.27.62,1.09,1.09,0,0,0,.73.24,1.34,1.34,0,0,0,1-.43,1.56,1.56,0,0,0,.41-1.1Z"/><path d="M488.68,132.19A1.11,1.11,0,0,0,488,132a1.22,1.22,0,0,0-1,.54,2.43,2.43,0,0,0-.4,1.48v2.87H485.2v-6h1.36v1.24h0a2.14,2.14,0,0,1,.61-1,1.44,1.44,0,0,1,.93-.35,1.21,1.21,0,0,1,.56.11Z"/><path d="M494.62,134.26h-4.09a1.7,1.7,0,0,0,.51,1.29,1.89,1.89,0,0,0,1.34.45,3,3,0,0,0,1.77-.58v1.1A4.08,4.08,0,0,1,492,137a2.7,2.7,0,0,1-2.08-.81,3.28,3.28,0,0,1-.75-2.3,3.18,3.18,0,0,1,.83-2.29,2.74,2.74,0,0,1,2.06-.88,2.38,2.38,0,0,1,1.9.79,3.29,3.29,0,0,1,.68,2.2Zm-1.32-1a1.76,1.76,0,0,0-.34-1.14,1.17,1.17,0,0,0-.94-.41,1.33,1.33,0,0,0-1,.43,1.9,1.9,0,0,0-.5,1.12Z"/><path d="M500.52,136.89H499.2V136h0a2,2,0,0,1-1.82,1.07,1.9,1.9,0,0,1-1.38-.48,1.66,1.66,0,0,1-.51-1.27c0-1.13.66-1.79,2-2l1.78-.25c0-.86-.4-1.28-1.22-1.28a2.91,2.91,0,0,0-1.93.73v-1.18a4.16,4.16,0,0,1,2.19-.57,2,2,0,0,1,2.28,2.24ZM499.2,134l-1.26.17a2,2,0,0,0-.88.29.81.81,0,0,0-.29.73.8.8,0,0,0,.27.62,1.05,1.05,0,0,0,.73.24,1.37,1.37,0,0,0,1-.43,1.55,1.55,0,0,0,.4-1.1Z"/><path d="M501.8,136.71v-1.26a2.76,2.76,0,0,0,1.68.58c.82,0,1.23-.25,1.23-.73a.58.58,0,0,0-.1-.35,1,1,0,0,0-.29-.25,2,2,0,0,0-.42-.2l-.54-.2a6,6,0,0,1-.67-.31,2.42,2.42,0,0,1-.49-.37,1.5,1.5,0,0,1-.3-.48,1.85,1.85,0,0,1-.1-.61,1.41,1.41,0,0,1,.21-.77,1.8,1.8,0,0,1,.55-.55,2.45,2.45,0,0,1,.79-.34,3.37,3.37,0,0,1,.9-.12,4.31,4.31,0,0,1,1.49.25v1.19a2.55,2.55,0,0,0-1.45-.43,2.26,2.26,0,0,0-.47.05,1.42,1.42,0,0,0-.35.15.63.63,0,0,0-.23.23.55.55,0,0,0-.08.29.66.66,0,0,0,.08.32.78.78,0,0,0,.24.24,2.36,2.36,0,0,0,.39.19l.52.18a7.52,7.52,0,0,1,.69.33,2.08,2.08,0,0,1,.53.37,1.58,1.58,0,0,1,.33.48,1.6,1.6,0,0,1,.12.65,1.46,1.46,0,0,1-.21.79,1.67,1.67,0,0,1-.56.56,2.89,2.89,0,0,1-.82.34,4.31,4.31,0,0,1-1,.1A4.23,4.23,0,0,1,501.8,136.71Z"/><path d="M428.55,39.72a6,6,0,0,1-2.92.72,4.09,4.09,0,0,1-3-1.16,4.17,4.17,0,0,1-1.15-3.07,4.31,4.31,0,0,1,4.47-4.46,5.81,5.81,0,0,1,2.35.42V33.6A4,4,0,0,0,426,33a2.92,2.92,0,0,0-2.2.88,3.16,3.16,0,0,0-.86,2.29,3.31,3.31,0,0,0,.74,2.28,2.55,2.55,0,0,0,2,.83,3.08,3.08,0,0,0,1.5-.34v-2h-1.77V35.73h3.16Z"/><path d="M433.69,35.59a1.11,1.11,0,0,0-.71-.19,1.22,1.22,0,0,0-1,.54,2.46,2.46,0,0,0-.4,1.49V40.3h-1.36v-6h1.36v1.23h0a2.07,2.07,0,0,1,.62-1,1.35,1.35,0,0,1,.92-.36,1.21,1.21,0,0,1,.56.11Z"/><path d="M439.88,40.3h-1.36v-.95h0a2,2,0,0,1-1.84,1.09c-1.42,0-2.13-.85-2.13-2.56V34.3h1.36v3.44c0,1.08.42,1.62,1.25,1.62a1.26,1.26,0,0,0,1-.44,1.72,1.72,0,0,0,.39-1.17V34.3h1.36Z"/><path d="M443,39.41h0v3.65h-1.36V34.3H443v1.05h0a2.23,2.23,0,0,1,2-1.19,2.14,2.14,0,0,1,1.78.8,3.41,3.41,0,0,1,.64,2.16,3.73,3.73,0,0,1-.73,2.4,2.37,2.37,0,0,1-2,.9A2,2,0,0,1,443,39.41Zm0-2.36v.74a1.57,1.57,0,0,0,.42,1.11,1.36,1.36,0,0,0,1.06.46,1.4,1.4,0,0,0,1.19-.59,2.71,2.71,0,0,0,.43-1.64,2.17,2.17,0,0,0-.4-1.39,1.33,1.33,0,0,0-1.09-.5,1.46,1.46,0,0,0-1.17.52A1.92,1.92,0,0,0,443,37.05Z"/><path d="M451.54,40.44a3,3,0,0,1-2.21-.84,3,3,0,0,1-.83-2.23,3,3,0,0,1,3.19-3.21,2.87,2.87,0,0,1,2.19.82,3.62,3.62,0,0,1-.06,4.59A3,3,0,0,1,451.54,40.44Zm.07-5.2a1.56,1.56,0,0,0-1.26.56,2.31,2.31,0,0,0-.46,1.53,2.21,2.21,0,0,0,.46,1.49,1.59,1.59,0,0,0,1.26.54,1.51,1.51,0,0,0,1.23-.53,2.35,2.35,0,0,0,.43-1.52,2.38,2.38,0,0,0-.43-1.53A1.49,1.49,0,0,0,451.61,35.24Z"/><path d="M464.8,40.3h-1.36v-1h0a2.34,2.34,0,0,1-3.79.35,3.29,3.29,0,0,1-.67-2.19,3.67,3.67,0,0,1,.74-2.39,2.42,2.42,0,0,1,2-.89,1.87,1.87,0,0,1,1.76,1h0V31.42h1.36Zm-1.34-2.74v-.79a1.53,1.53,0,0,0-.41-1.08,1.38,1.38,0,0,0-1.06-.45,1.43,1.43,0,0,0-1.2.57,2.54,2.54,0,0,0-.44,1.58,2.24,2.24,0,0,0,.42,1.44,1.37,1.37,0,0,0,1.13.53,1.42,1.42,0,0,0,1.13-.51A1.92,1.92,0,0,0,463.46,37.56Z"/><path d="M471.66,37.67h-4.09a1.73,1.73,0,0,0,.51,1.28,1.93,1.93,0,0,0,1.35.45,3,3,0,0,0,1.76-.57v1.09a4,4,0,0,1-2.17.52,2.65,2.65,0,0,1-2.07-.82A3.7,3.7,0,0,1,467,35a2.7,2.7,0,0,1,2.06-.88A2.37,2.37,0,0,1,471,35a3.34,3.34,0,0,1,.67,2.2Zm-1.31-1a1.76,1.76,0,0,0-.35-1.14,1.14,1.14,0,0,0-.94-.41,1.3,1.3,0,0,0-1,.43,1.94,1.94,0,0,0-.5,1.12Z"/><path d="M479.42,40.23a2.29,2.29,0,0,1-1.05.2c-1.17,0-1.75-.56-1.75-1.67v-3.4h-1V34.3h1V32.91l1.36-.39V34.3h1.44v1.06H478v3a1.28,1.28,0,0,0,.19.77.82.82,0,0,0,.65.22,1,1,0,0,0,.6-.19Z"/><path d="M484.07,35.59a1.11,1.11,0,0,0-.71-.19,1.22,1.22,0,0,0-1,.54,2.46,2.46,0,0,0-.4,1.49V40.3h-1.36v-6H482v1.23h0a2.06,2.06,0,0,1,.61-1,1.4,1.4,0,0,1,.93-.36,1.21,1.21,0,0,1,.56.11Z"/><path d="M489.64,40.3h-1.32v-.94h0a2,2,0,0,1-1.82,1.08,1.9,1.9,0,0,1-1.38-.48,1.67,1.67,0,0,1-.51-1.27c0-1.14.66-1.8,2-2l1.78-.26c0-.85-.4-1.28-1.22-1.28a2.92,2.92,0,0,0-1.93.74V34.72a4.15,4.15,0,0,1,2.19-.56,2,2,0,0,1,2.28,2.24Zm-1.32-2.95-1.26.18a2,2,0,0,0-.88.28.82.82,0,0,0-.29.73.8.8,0,0,0,.27.62,1,1,0,0,0,.73.25,1.38,1.38,0,0,0,1-.44,1.55,1.55,0,0,0,.4-1.1Z"/><path d="M492.68,39.43h0v.87h-1.36V31.42h1.36v3.93h0a2.23,2.23,0,0,1,2-1.19,2.15,2.15,0,0,1,1.77.8,3.37,3.37,0,0,1,.65,2.16,3.74,3.74,0,0,1-.72,2.41,2.38,2.38,0,0,1-2,.91A1.94,1.94,0,0,1,492.68,39.43Zm0-2.38v.74a1.57,1.57,0,0,0,.42,1.11,1.36,1.36,0,0,0,1.06.46,1.4,1.4,0,0,0,1.19-.59,2.71,2.71,0,0,0,.43-1.64,2.17,2.17,0,0,0-.4-1.39,1.33,1.33,0,0,0-1.09-.5,1.46,1.46,0,0,0-1.17.52A1.92,1.92,0,0,0,492.64,37.05Z"/><path d="M503,40.3h-1.32v-.94h0a2,2,0,0,1-1.82,1.08,1.92,1.92,0,0,1-1.39-.48,1.7,1.7,0,0,1-.5-1.27c0-1.14.65-1.8,2-2l1.78-.26c0-.85-.41-1.28-1.22-1.28a2.92,2.92,0,0,0-1.94.74V34.72a4.21,4.21,0,0,1,2.2-.56A2,2,0,0,1,503,36.4Zm-1.31-2.95-1.26.18a1.94,1.94,0,0,0-.88.28.83.83,0,0,0-.3.73.8.8,0,0,0,.27.62,1,1,0,0,0,.73.25,1.34,1.34,0,0,0,1-.44,1.56,1.56,0,0,0,.41-1.1Z"/><path d="M506,40.05a3.65,3.65,0,0,1-.62,2.27,2.11,2.11,0,0,1-1.78.8,1.9,1.9,0,0,1-.83-.19V41.77a1.3,1.3,0,0,0,.72.26c.76,0,1.15-.67,1.15-2V34.3H506Zm-.67-7a.8.8,0,0,1-.57-.22.71.71,0,0,1-.24-.55.74.74,0,0,1,.24-.56.86.86,0,0,1,1.15,0,.74.74,0,0,1,.24.56.71.71,0,0,1-.24.54A.82.82,0,0,1,505.34,33Z"/><path d="M510.44,40.44a3,3,0,0,1-2.22-.84,3.05,3.05,0,0,1-.82-2.23,3.13,3.13,0,0,1,.86-2.36,3.17,3.17,0,0,1,2.33-.85,2.87,2.87,0,0,1,2.19.82,3.22,3.22,0,0,1,.79,2.29,3.15,3.15,0,0,1-.85,2.3A3,3,0,0,1,510.44,40.44Zm.07-5.2a1.56,1.56,0,0,0-1.26.56,2.31,2.31,0,0,0-.47,1.53,2.22,2.22,0,0,0,.47,1.49,1.59,1.59,0,0,0,1.26.54,1.51,1.51,0,0,0,1.23-.53,2.35,2.35,0,0,0,.43-1.52,2.38,2.38,0,0,0-.43-1.53A1.49,1.49,0,0,0,510.51,35.24Z"/><path d="M401.85,15.89a3.8,3.8,0,0,1-2.91-1.18,4.34,4.34,0,0,1-1.09-3.07A4.57,4.57,0,0,1,399,8.41a3.91,3.91,0,0,1,3-1.21,3.69,3.69,0,0,1,2.85,1.17,4.36,4.36,0,0,1,1.08,3.07,4.59,4.59,0,0,1-1.11,3.25A3.83,3.83,0,0,1,401.85,15.89Zm.07-7.46a2.32,2.32,0,0,0-1.88.86,3.42,3.42,0,0,0-.73,2.27,3.43,3.43,0,0,0,.71,2.25,2.27,2.27,0,0,0,1.84.86,2.35,2.35,0,0,0,1.9-.82,3.36,3.36,0,0,0,.7-2.28,3.55,3.55,0,0,0-.68-2.32A2.27,2.27,0,0,0,401.92,8.43Z"/><path d="M408.69,14.86h0V18.5h-1.36V9.74h1.36V10.8h0a2.22,2.22,0,0,1,2-1.2,2.15,2.15,0,0,1,1.78.81,3.32,3.32,0,0,1,.64,2.15,3.78,3.78,0,0,1-.72,2.41,2.39,2.39,0,0,1-2,.9A2,2,0,0,1,408.69,14.86Zm0-2.37v.75a1.58,1.58,0,0,0,.42,1.11,1.41,1.41,0,0,0,1.07.46,1.38,1.38,0,0,0,1.18-.59,2.72,2.72,0,0,0,.43-1.65,2.12,2.12,0,0,0-.4-1.38,1.3,1.3,0,0,0-1.08-.5,1.46,1.46,0,0,0-1.17.51A1.91,1.91,0,0,0,408.65,12.49Z"/><path d="M419.62,13.11h-4.09A1.7,1.7,0,0,0,416,14.4a1.91,1.91,0,0,0,1.34.45,2.93,2.93,0,0,0,1.77-.58v1.1a4.07,4.07,0,0,1-2.17.52,2.73,2.73,0,0,1-2.08-.82,3.28,3.28,0,0,1-.75-2.3,3.18,3.18,0,0,1,.83-2.28A2.71,2.71,0,0,1,417,9.6a2.36,2.36,0,0,1,1.9.8,3.24,3.24,0,0,1,.68,2.19Zm-1.32-1A1.71,1.71,0,0,0,418,11a1.16,1.16,0,0,0-.94-.4,1.32,1.32,0,0,0-1,.42,2,2,0,0,0-.5,1.12Z"/><path d="M424.39,11a1.11,1.11,0,0,0-.71-.19,1.21,1.21,0,0,0-1,.54,2.43,2.43,0,0,0-.41,1.48v2.87h-1.36v-6h1.36V11h0a2.16,2.16,0,0,1,.62-1,1.39,1.39,0,0,1,.92-.35,1.18,1.18,0,0,1,.56.11Z"/><path d="M430,15.74h-1.32v-.93h0a2,2,0,0,1-1.83,1.08,1.88,1.88,0,0,1-1.38-.49,1.69,1.69,0,0,1-.5-1.27c0-1.13.65-1.79,2-2l1.78-.25c0-.85-.41-1.28-1.22-1.28a2.88,2.88,0,0,0-1.94.74V10.17a4.22,4.22,0,0,1,2.2-.57A2,2,0,0,1,430,11.84Zm-1.31-2.94-1.26.17a2,2,0,0,0-.89.29.85.85,0,0,0-.29.73.8.8,0,0,0,.27.62,1.07,1.07,0,0,0,.73.24,1.34,1.34,0,0,0,1-.43,1.56,1.56,0,0,0,.41-1.1Z"/><path d="M435.91,15.47a3.32,3.32,0,0,1-1.7.42,2.89,2.89,0,0,1-2.16-.84,3,3,0,0,1-.82-2.16,3.26,3.26,0,0,1,.88-2.39,3.17,3.17,0,0,1,2.36-.9,3.47,3.47,0,0,1,1.45.29v1.27a2.17,2.17,0,0,0-1.34-.47,1.86,1.86,0,0,0-1.41.58,2.13,2.13,0,0,0-.55,1.53,2,2,0,0,0,.52,1.47,1.83,1.83,0,0,0,1.39.54,2.2,2.2,0,0,0,1.38-.52Z"/><path d="M438,8.48a.84.84,0,0,1-.58-.21.78.78,0,0,1,0-1.11.87.87,0,0,1,1.16,0,.73.73,0,0,1,.24.56.71.71,0,0,1-.24.54A.81.81,0,0,1,438,8.48Zm.67,7.26h-1.36v-6h1.36Z"/><path d="M443.05,15.89a3,3,0,0,1-2.21-.85,3,3,0,0,1-.83-2.23,3.2,3.2,0,0,1,.86-2.36,3.21,3.21,0,0,1,2.33-.85,2.87,2.87,0,0,1,2.19.83,3.16,3.16,0,0,1,.79,2.29,3.13,3.13,0,0,1-.85,2.3A3,3,0,0,1,443.05,15.89Zm.07-5.2a1.55,1.55,0,0,0-1.26.55,2.36,2.36,0,0,0-.46,1.54,2.18,2.18,0,0,0,.47,1.49,1.57,1.57,0,0,0,1.25.54,1.48,1.48,0,0,0,1.23-.54,2.32,2.32,0,0,0,.43-1.51,2.38,2.38,0,0,0-.43-1.53A1.48,1.48,0,0,0,443.12,10.69Z"/><path d="M452.9,15.74h-1.36V12.36c0-1.12-.39-1.68-1.18-1.68a1.31,1.31,0,0,0-1,.47,1.71,1.71,0,0,0-.4,1.17v3.42h-1.37v-6h1.37v1h0a2.14,2.14,0,0,1,1.94-1.14,1.84,1.84,0,0,1,1.5.64,2.88,2.88,0,0,1,.51,1.84Z"/><path d="M459.64,13.11h-4.09a1.74,1.74,0,0,0,.52,1.29,1.89,1.89,0,0,0,1.34.45,2.9,2.9,0,0,0,1.76-.58v1.1a4,4,0,0,1-2.16.52,2.7,2.7,0,0,1-2.08-.82,3.28,3.28,0,0,1-.75-2.3,3.17,3.17,0,0,1,.82-2.28,2.72,2.72,0,0,1,2.06-.89,2.38,2.38,0,0,1,1.91.8,3.24,3.24,0,0,1,.67,2.19Zm-1.31-1A1.71,1.71,0,0,0,458,11a1.13,1.13,0,0,0-.93-.4,1.36,1.36,0,0,0-1,.42,2,2,0,0,0-.5,1.12Z"/><path d="M460.56,15.56V14.3a2.76,2.76,0,0,0,1.68.58c.82,0,1.23-.24,1.23-.73a.58.58,0,0,0-.1-.35,1,1,0,0,0-.29-.25,1.64,1.64,0,0,0-.42-.2l-.54-.2a5.84,5.84,0,0,1-.66-.31,2.24,2.24,0,0,1-.5-.37,1.32,1.32,0,0,1-.29-.48,1.63,1.63,0,0,1-.1-.61,1.52,1.52,0,0,1,.2-.77,1.8,1.8,0,0,1,.55-.55,2.55,2.55,0,0,1,.79-.34A3.44,3.44,0,0,1,463,9.6a4.12,4.12,0,0,1,1.49.26v1.19a2.54,2.54,0,0,0-1.46-.44,2.16,2.16,0,0,0-.46.05,1.5,1.5,0,0,0-.36.15A.72.72,0,0,0,462,11a.55.55,0,0,0-.08.29.63.63,0,0,0,.08.32.82.82,0,0,0,.25.24,1.92,1.92,0,0,0,.38.19l.52.18c.26.11.49.22.7.33a2.3,2.3,0,0,1,.52.37,1.45,1.45,0,0,1,.34.48,1.8,1.8,0,0,1,.11.65,1.46,1.46,0,0,1-.21.79,1.79,1.79,0,0,1-.56.57,3.27,3.27,0,0,1-.81.33,4.37,4.37,0,0,1-1,.11A4.08,4.08,0,0,1,460.56,15.56Z"/><path d="M474.87,15.74h-1.36v-1h0a2.34,2.34,0,0,1-3.79.35,3.37,3.37,0,0,1-.67-2.19,3.65,3.65,0,0,1,.74-2.39,2.4,2.4,0,0,1,2-.9,1.87,1.87,0,0,1,1.76,1h0V6.86h1.36ZM473.52,13v-.78a1.57,1.57,0,0,0-.41-1.09,1.41,1.41,0,0,0-1.06-.44,1.43,1.43,0,0,0-1.2.57,2.53,2.53,0,0,0-.44,1.57,2.29,2.29,0,0,0,.42,1.45,1.38,1.38,0,0,0,1.13.53,1.4,1.4,0,0,0,1.13-.52A1.92,1.92,0,0,0,473.52,13Z"/><path d="M481.72,13.11h-4.09a1.77,1.77,0,0,0,.51,1.29,1.93,1.93,0,0,0,1.35.45,2.9,2.9,0,0,0,1.76-.58v1.1a4,4,0,0,1-2.17.52,2.69,2.69,0,0,1-2.07-.82,3.24,3.24,0,0,1-.76-2.3,3.18,3.18,0,0,1,.83-2.28,2.72,2.72,0,0,1,2.06-.89,2.38,2.38,0,0,1,1.91.8,3.24,3.24,0,0,1,.67,2.19Zm-1.31-1a1.76,1.76,0,0,0-.35-1.14,1.14,1.14,0,0,0-.93-.4,1.33,1.33,0,0,0-1,.42,2,2,0,0,0-.5,1.12Z"/><path d="M487.7,14.88h0v.86h-1.36V6.86h1.36V10.8h0a2.22,2.22,0,0,1,2-1.2,2.13,2.13,0,0,1,1.77.81,3.37,3.37,0,0,1,.65,2.16,3.76,3.76,0,0,1-.72,2.41,2.4,2.4,0,0,1-2,.91A1.94,1.94,0,0,1,487.7,14.88Zm0-2.39v.75a1.58,1.58,0,0,0,.42,1.11,1.47,1.47,0,0,0,2.25-.13,2.72,2.72,0,0,0,.43-1.65,2.12,2.12,0,0,0-.4-1.38,1.31,1.31,0,0,0-1.09-.5,1.49,1.49,0,0,0-1.17.51A2,2,0,0,0,487.66,12.49Z"/><path d="M494.91,15.74h-1.37V6.86h1.37Z"/><path d="M499.34,15.89a3,3,0,0,1-2.22-.85,3,3,0,0,1-.83-2.23,3.16,3.16,0,0,1,.87-2.36,3.19,3.19,0,0,1,2.33-.85,2.9,2.9,0,0,1,2.19.83,3.19,3.19,0,0,1,.78,2.29,3.16,3.16,0,0,1-.84,2.3A3.05,3.05,0,0,1,499.34,15.89Zm.06-5.2a1.55,1.55,0,0,0-1.26.55,2.41,2.41,0,0,0-.46,1.54,2.24,2.24,0,0,0,.47,1.49,1.57,1.57,0,0,0,1.25.54,1.5,1.5,0,0,0,1.24-.54,2.38,2.38,0,0,0,.43-1.51,2.44,2.44,0,0,0-.43-1.53A1.5,1.5,0,0,0,499.4,10.69Z"/><path d="M509.3,18.5h-1.36V14.71h0a2.11,2.11,0,0,1-2,1.18,2.2,2.2,0,0,1-1.78-.81,3.31,3.31,0,0,1-.67-2.19,3.63,3.63,0,0,1,.73-2.39,2.42,2.42,0,0,1,2-.9,1.85,1.85,0,0,1,1.75,1h0V9.74h1.36ZM508,13v-.77a1.56,1.56,0,0,0-.42-1.1,1.38,1.38,0,0,0-1.06-.45,1.46,1.46,0,0,0-1.2.56,2.58,2.58,0,0,0-.43,1.6,2.24,2.24,0,0,0,.42,1.44,1.35,1.35,0,0,0,1.09.52,1.46,1.46,0,0,0,1.17-.51A2,2,0,0,0,508,13Z"/><path d="M516.31,15.74H515V14.8h0a2,2,0,0,1-1.84,1.09c-1.42,0-2.13-.86-2.13-2.56V9.74h1.36v3.45c0,1.08.41,1.62,1.25,1.62a1.25,1.25,0,0,0,1-.45A1.7,1.7,0,0,0,515,13.2V9.74h1.36Z"/><path d="M523.16,13.11h-4.09a1.7,1.7,0,0,0,.51,1.29,1.93,1.93,0,0,0,1.35.45,2.92,2.92,0,0,0,1.76-.58v1.1a4.07,4.07,0,0,1-2.17.52,2.73,2.73,0,0,1-2.08-.82,3.28,3.28,0,0,1-.75-2.3,3.18,3.18,0,0,1,.83-2.28,2.71,2.71,0,0,1,2.06-.89,2.34,2.34,0,0,1,1.9.8,3.24,3.24,0,0,1,.68,2.19Zm-1.31-1A1.76,1.76,0,0,0,521.5,11a1.16,1.16,0,0,0-.94-.4,1.32,1.32,0,0,0-1,.42,2,2,0,0,0-.5,1.12Z"/><path d="M527.11,15.89A3,3,0,0,1,524.9,15a3,3,0,0,1-.83-2.23,3.16,3.16,0,0,1,.86-2.36,3.21,3.21,0,0,1,2.33-.85,2.87,2.87,0,0,1,2.19.83,3.2,3.2,0,0,1,.79,2.29,3.17,3.17,0,0,1-.85,2.3A3,3,0,0,1,527.11,15.89Zm.07-5.2a1.55,1.55,0,0,0-1.26.55,2.36,2.36,0,0,0-.46,1.54,2.23,2.23,0,0,0,.46,1.49,1.59,1.59,0,0,0,1.26.54,1.49,1.49,0,0,0,1.23-.54,2.32,2.32,0,0,0,.43-1.51,2.38,2.38,0,0,0-.43-1.53A1.49,1.49,0,0,0,527.18,10.69Z"/><path d="M290.92,82.08v-9.8h3.57a4.47,4.47,0,0,1,2.52.6,1.93,1.93,0,0,1,.88,1.7,2,2,0,0,1-.53,1.38,2.8,2.8,0,0,1-1.37.83v0a2.75,2.75,0,0,1,1.67.77,2.15,2.15,0,0,1,.62,1.57,2.61,2.61,0,0,1-1,2.13,4,4,0,0,1-2.63.79Zm2.21-8.17v2.32h1a1.62,1.62,0,0,0,1.08-.33,1.14,1.14,0,0,0,.39-.91c0-.72-.54-1.08-1.61-1.08Zm0,4v2.59h1.2a1.83,1.83,0,0,0,1.2-.36,1.19,1.19,0,0,0,.43-1,1.09,1.09,0,0,0-.43-.92,1.83,1.83,0,0,0-1.19-.34Z"/><path d="M306.34,82.08h-2.16V81h0A2.45,2.45,0,0,1,302,82.25q-2.43,0-2.43-2.94V75.08h2.15v4c0,1,.39,1.48,1.18,1.48a1.16,1.16,0,0,0,.92-.41,1.6,1.6,0,0,0,.35-1.1v-4h2.16Z"/><path d="M313.46,81.83a4.3,4.3,0,0,1-2.11.42,3.56,3.56,0,0,1-2.61-1,3.37,3.37,0,0,1-1-2.53,3.69,3.69,0,0,1,1.07-2.81,3.92,3.92,0,0,1,2.86-1,3.66,3.66,0,0,1,1.79.33v1.83a2.45,2.45,0,0,0-1.51-.5,1.88,1.88,0,0,0-2,2,2,2,0,0,0,.52,1.46,1.92,1.92,0,0,0,1.43.53,2.82,2.82,0,0,0,1.58-.51Z"/><path d="M317,82.08h-2.16V71.72H317Z"/><path d="M325.14,79.2h-4.56c.07,1,.71,1.52,1.92,1.52a3.8,3.8,0,0,0,2-.54v1.55a5.31,5.31,0,0,1-2.53.52,3.25,3.25,0,0,1-3.56-3.56,3.72,3.72,0,0,1,1-2.76,3.36,3.36,0,0,1,2.49-1,3.09,3.09,0,0,1,2.37.91,3.55,3.55,0,0,1,.83,2.47Zm-2-1.33c0-1-.41-1.5-1.22-1.5a1.17,1.17,0,0,0-.9.43,2,2,0,0,0-.46,1.07Z"/><path d="M337.14,82.08H335v-1h0a2.4,2.4,0,0,1-2.16,1.13,2.66,2.66,0,0,1-2.12-.92,3.86,3.86,0,0,1-.8-2.59,4.21,4.21,0,0,1,.88-2.78,2.88,2.88,0,0,1,2.32-1,2,2,0,0,1,1.88,1h0V71.72h2.16ZM335,78.68v-.53a1.63,1.63,0,0,0-.4-1.13,1.4,1.4,0,0,0-2.15.11,2.62,2.62,0,0,0-.4,1.55,2.26,2.26,0,0,0,.39,1.42,1.3,1.3,0,0,0,1.08.5,1.32,1.32,0,0,0,1.07-.53A2.21,2.21,0,0,0,335,78.68Z"/><path d="M345.25,79.2h-4.57c.07,1,.71,1.52,1.92,1.52a3.78,3.78,0,0,0,2-.54v1.55a5.3,5.3,0,0,1-2.52.52,3.26,3.26,0,0,1-3.57-3.56,3.76,3.76,0,0,1,1-2.76,3.39,3.39,0,0,1,2.49-1,3.09,3.09,0,0,1,2.37.91,3.51,3.51,0,0,1,.84,2.47Zm-2-1.33c0-1-.4-1.5-1.21-1.5a1.14,1.14,0,0,0-.9.43,1.93,1.93,0,0,0-.46,1.07Z"/><path d="M299.32,96h-4.57c.08,1,.72,1.52,1.92,1.52a3.78,3.78,0,0,0,2-.54v1.55a5.24,5.24,0,0,1-2.52.52,3.26,3.26,0,0,1-3.57-3.56,3.73,3.73,0,0,1,1-2.76,3.35,3.35,0,0,1,2.48-1,3.09,3.09,0,0,1,2.37.91,3.51,3.51,0,0,1,.84,2.47Zm-2-1.33c0-1-.41-1.5-1.22-1.5a1.14,1.14,0,0,0-.9.43,1.93,1.93,0,0,0-.46,1.07Z"/><path d="M307.27,91.88l-2.6,7H302.2l-2.48-7H302l1.22,4.32a5.79,5.79,0,0,1,.24,1.24h0a6.61,6.61,0,0,1,.25-1.2L305,91.88Z"/><path d="M314.34,96h-4.56c.07,1,.71,1.52,1.92,1.52a3.78,3.78,0,0,0,2-.54v1.55a5.3,5.3,0,0,1-2.52.52,3.26,3.26,0,0,1-3.57-3.56,3.76,3.76,0,0,1,1-2.76,3.37,3.37,0,0,1,2.49-1,3.09,3.09,0,0,1,2.37.91,3.5,3.5,0,0,1,.83,2.47Zm-2-1.33c0-1-.4-1.5-1.21-1.5a1.14,1.14,0,0,0-.9.43,1.94,1.94,0,0,0-.47,1.07Z"/><path d="M322.39,98.88h-2.15V95c0-1.08-.39-1.62-1.16-1.62a1.15,1.15,0,0,0-.93.43,1.63,1.63,0,0,0-.36,1.09v4h-2.16v-7h2.16V93h0a2.47,2.47,0,0,1,2.25-1.28c1.55,0,2.32,1,2.32,2.89Z"/><path d="M328.33,98.8a3.18,3.18,0,0,1-1.44.25q-2.28,0-2.28-2.37v-3.2h-1.14v-1.6h1.14V90.37l2.15-.61v2.12h1.57v1.6h-1.57v2.83c0,.73.29,1.09.87,1.09a1.5,1.5,0,0,0,.7-.2Z"/><path d="M332.83,99.05a3.73,3.73,0,0,1-2.75-1,4.06,4.06,0,0,1,0-5.38,3.91,3.91,0,0,1,2.8-1,3.73,3.73,0,0,1,2.74,1,3.51,3.51,0,0,1,1,2.6,3.69,3.69,0,0,1-1,2.75A3.79,3.79,0,0,1,332.83,99.05Zm.05-5.68a1.45,1.45,0,0,0-1.19.52,2.34,2.34,0,0,0-.42,1.49c0,1.35.54,2,1.63,2s1.55-.69,1.55-2.07S333.93,93.37,332.88,93.37Z"/><path d="M337.59,98.7V97a5,5,0,0,0,1.07.48,3.62,3.62,0,0,0,1,.15,2.22,2.22,0,0,0,.9-.15.51.51,0,0,0,.34-.48.43.43,0,0,0-.15-.34,1.62,1.62,0,0,0-.39-.24,5.19,5.19,0,0,0-.52-.19L339.3,96a5.59,5.59,0,0,1-.73-.34,2,2,0,0,1-.53-.42,1.55,1.55,0,0,1-.33-.55,2.11,2.11,0,0,1-.12-.75,1.92,1.92,0,0,1,.26-1,2.27,2.27,0,0,1,.68-.7,3,3,0,0,1,1-.39,4.83,4.83,0,0,1,1.15-.13,6.56,6.56,0,0,1,1.88.28v1.67a3.26,3.26,0,0,0-.88-.36,3.61,3.61,0,0,0-.91-.12,1.64,1.64,0,0,0-.4,0,1.13,1.13,0,0,0-.34.11.67.67,0,0,0-.22.18.4.4,0,0,0-.08.26.48.48,0,0,0,.12.33,1,1,0,0,0,.32.23,2.53,2.53,0,0,0,.44.18l.48.16a5.72,5.72,0,0,1,.78.33,2.67,2.67,0,0,1,.6.42,1.55,1.55,0,0,1,.38.56,1.94,1.94,0,0,1,.14.76,2,2,0,0,1-.27,1.07,2.13,2.13,0,0,1-.72.71,3.27,3.27,0,0,1-1,.41,6.08,6.08,0,0,1-1.22.12A6.2,6.2,0,0,1,337.59,98.7Z"/><rect class="a" x="146.02" y="20.2" width="100" height="20"/><rect class="f" x="146.02" y="20.2" width="100" height="20"/><rect class="g" x="146.02" y="20.2" width="100" height="20"/><rect class="a" x="145.8" y="124.62" width="100" height="29.92"/><rect class="f" x="145.8" y="124.62" width="100" height="29.92"/><rect class="g" x="145.8" y="124.62" width="100" height="29.92"/><path d="M161.71,26.84h-2.33V34h-.94V26.84h-2.32V26h5.59Z"/><path d="M166.06,31.39H162a2.12,2.12,0,0,0,.51,1.48,1.79,1.79,0,0,0,1.36.52,2.81,2.81,0,0,0,1.79-.64v.87a3.34,3.34,0,0,1-2,.55,2.42,2.42,0,0,1-1.91-.78,3.2,3.2,0,0,1-.7-2.21A3.21,3.21,0,0,1,161.8,29a2.45,2.45,0,0,1,1.89-.84,2.15,2.15,0,0,1,1.75.73,3.06,3.06,0,0,1,.62,2Zm-.95-.78a1.86,1.86,0,0,0-.38-1.24,1.29,1.29,0,0,0-1-.45,1.49,1.49,0,0,0-1.11.47,2.13,2.13,0,0,0-.56,1.22Z"/><path d="M175.33,34h-.92v-3.3a2.48,2.48,0,0,0-.3-1.38,1.14,1.14,0,0,0-1-.43,1.22,1.22,0,0,0-1,.54,2,2,0,0,0-.42,1.29V34h-.92V30.62c0-1.13-.43-1.7-1.3-1.7a1.2,1.2,0,0,0-1,.51,2.06,2.06,0,0,0-.4,1.32V34h-.92V28.28h.92v.91h0a2,2,0,0,1,1.79-1,1.67,1.67,0,0,1,1,.33,1.65,1.65,0,0,1,.6.86,2.06,2.06,0,0,1,1.91-1.19c1.26,0,1.9.78,1.9,2.34Z"/><path d="M177.72,33.2h0v3.48h-.92v-8.4h.92v1h0a2.19,2.19,0,0,1,2-1.14,2.13,2.13,0,0,1,1.74.77,3.25,3.25,0,0,1,.62,2.07,3.56,3.56,0,0,1-.7,2.31,2.34,2.34,0,0,1-1.92.87A1.93,1.93,0,0,1,177.72,33.2Zm0-2.32v.81a1.71,1.71,0,0,0,.46,1.21,1.66,1.66,0,0,0,2.49-.15,2.9,2.9,0,0,0,.48-1.78,2.28,2.28,0,0,0-.45-1.5,1.46,1.46,0,0,0-1.2-.55,1.64,1.64,0,0,0-1.29.56A2,2,0,0,0,177.7,30.88Z"/><path d="M185.66,34.17a2.67,2.67,0,0,1-2-.81,3,3,0,0,1-.76-2.13,3.12,3.12,0,0,1,.79-2.27,2.86,2.86,0,0,1,2.14-.81,2.57,2.57,0,0,1,2,.79,3.15,3.15,0,0,1,.72,2.2,3.08,3.08,0,0,1-.78,2.2A2.73,2.73,0,0,1,185.66,34.17Zm.06-5.25a1.75,1.75,0,0,0-1.4.61,2.5,2.5,0,0,0-.52,1.66,2.33,2.33,0,0,0,.53,1.61,1.73,1.73,0,0,0,1.39.59,1.7,1.7,0,0,0,1.38-.57,2.53,2.53,0,0,0,.48-1.65,2.55,2.55,0,0,0-.48-1.66A1.69,1.69,0,0,0,185.72,28.92Z"/><path d="M192.7,29.22A1.07,1.07,0,0,0,192,29a1.17,1.17,0,0,0-1,.56,2.58,2.58,0,0,0-.4,1.51V34h-.92V28.28h.92v1.19h0a2,2,0,0,1,.6-.95,1.4,1.4,0,0,1,.9-.34,1.56,1.56,0,0,1,.55.08Z"/><path d="M193.89,26.82a.6.6,0,0,1-.43-.16.61.61,0,0,1-.17-.43.6.6,0,0,1,.17-.43.61.61,0,0,1,.43-.17.63.63,0,0,1,.43.17.6.6,0,0,1,.17.43.61.61,0,0,1-.17.42A.59.59,0,0,1,193.89,26.82Zm.44,7.21h-.92V28.28h.92Z"/><path d="M199.92,28.55l-3.4,4.7h3.37V34h-4.72v-.28l3.4-4.68h-3.09v-.79h4.44Z"/><path d="M204.94,34H204v-.89h0a1.94,1.94,0,0,1-1.77,1,1.89,1.89,0,0,1-1.35-.46,1.57,1.57,0,0,1-.48-1.2c0-1.08.63-1.7,1.9-1.88l1.72-.24c0-1-.4-1.47-1.19-1.47a2.84,2.84,0,0,0-1.87.71v-.94a3.55,3.55,0,0,1,1.95-.54c1.35,0,2,.71,2,2.14Zm-.92-2.9-1.39.19a2.25,2.25,0,0,0-1,.31.92.92,0,0,0-.33.81.89.89,0,0,0,.3.69,1.15,1.15,0,0,0,.8.26,1.46,1.46,0,0,0,1.13-.48A1.69,1.69,0,0,0,204,31.7Z"/><path d="M211.3,34h-.93v-1h0a2.11,2.11,0,0,1-2,1.11,2.18,2.18,0,0,1-1.74-.77,3.21,3.21,0,0,1-.65-2.11,3.42,3.42,0,0,1,.72-2.28,2.39,2.39,0,0,1,1.92-.86,1.84,1.84,0,0,1,1.72.93h0V25.52h.93Zm-.93-2.6v-.84a1.62,1.62,0,0,0-.46-1.18,1.53,1.53,0,0,0-1.16-.49,1.59,1.59,0,0,0-1.33.62,2.72,2.72,0,0,0-.48,1.71,2.45,2.45,0,0,0,.46,1.57,1.52,1.52,0,0,0,1.25.57,1.55,1.55,0,0,0,1.24-.55A2.08,2.08,0,0,0,210.37,31.43Z"/><path d="M215.28,34.17a2.67,2.67,0,0,1-2-.81,3,3,0,0,1-.76-2.13,3.12,3.12,0,0,1,.79-2.27,2.86,2.86,0,0,1,2.14-.81,2.57,2.57,0,0,1,2,.79,3.15,3.15,0,0,1,.72,2.2,3.08,3.08,0,0,1-.78,2.2A2.73,2.73,0,0,1,215.28,34.17Zm.06-5.25a1.75,1.75,0,0,0-1.4.61,2.45,2.45,0,0,0-.52,1.66,2.38,2.38,0,0,0,.52,1.61,1.76,1.76,0,0,0,1.4.59,1.7,1.7,0,0,0,1.38-.57,2.53,2.53,0,0,0,.48-1.65,2.55,2.55,0,0,0-.48-1.66A1.69,1.69,0,0,0,215.34,28.92Z"/><path d="M222.32,29.22a1.07,1.07,0,0,0-.69-.19,1.17,1.17,0,0,0-1,.56,2.58,2.58,0,0,0-.4,1.51V34h-.92V28.28h.92v1.19h0a2,2,0,0,1,.6-.95,1.4,1.4,0,0,1,.9-.34,1.56,1.56,0,0,1,.55.08Z"/><path d="M227.65,31.39h-4.06a2.17,2.17,0,0,0,.52,1.48,1.77,1.77,0,0,0,1.36.52,2.83,2.83,0,0,0,1.79-.64v.87a3.34,3.34,0,0,1-2,.55,2.42,2.42,0,0,1-1.91-.78,3.2,3.2,0,0,1-.7-2.21A3.16,3.16,0,0,1,223.4,29a2.45,2.45,0,0,1,1.89-.84,2.16,2.16,0,0,1,1.75.73,3.06,3.06,0,0,1,.61,2Zm-.94-.78a1.86,1.86,0,0,0-.38-1.24,1.33,1.33,0,0,0-1.06-.45,1.48,1.48,0,0,0-1.1.47,2.07,2.07,0,0,0-.56,1.22Z"/><path d="M228.41,33.83v-1a2.74,2.74,0,0,0,1.66.55c.81,0,1.21-.27,1.21-.8a.67.67,0,0,0-.1-.39,1.1,1.1,0,0,0-.28-.29,2.73,2.73,0,0,0-.42-.22l-.51-.21a6.26,6.26,0,0,1-.67-.3,1.86,1.86,0,0,1-.49-.35,1.4,1.4,0,0,1-.29-.44,1.67,1.67,0,0,1-.1-.58,1.28,1.28,0,0,1,.19-.71,1.65,1.65,0,0,1,.49-.53,2.28,2.28,0,0,1,.71-.31,3.1,3.1,0,0,1,.81-.11,3.34,3.34,0,0,1,1.34.26v.93a2.58,2.58,0,0,0-1.46-.42A1.73,1.73,0,0,0,230,29a1.27,1.27,0,0,0-.35.17.77.77,0,0,0-.23.25.62.62,0,0,0-.08.33.74.74,0,0,0,.08.38.76.76,0,0,0,.24.27,1.51,1.51,0,0,0,.38.21l.51.21c.25.1.48.2.68.3a2.05,2.05,0,0,1,.52.35,1.54,1.54,0,0,1,.33.44,1.42,1.42,0,0,1,.11.61,1.47,1.47,0,0,1-.18.74,1.69,1.69,0,0,1-.51.52,2.34,2.34,0,0,1-.72.31,3.44,3.44,0,0,1-.86.1A3.39,3.39,0,0,1,228.41,33.83Z"/><path d="M154.47,137.56a4.74,4.74,0,0,1-2.22.47,3.57,3.57,0,0,1-2.75-1.11,4.07,4.07,0,0,1-1-2.9,4.24,4.24,0,0,1,1.16-3.12,3.92,3.92,0,0,1,3-1.19,4.71,4.71,0,0,1,1.89.33v1a3.84,3.84,0,0,0-1.91-.48,2.9,2.9,0,0,0-2.24.93,3.45,3.45,0,0,0-.87,2.47,3.32,3.32,0,0,0,.81,2.35,2.75,2.75,0,0,0,2.11.87,4,4,0,0,0,2.1-.54Z"/><path d="M160.32,135.25h-4.06a2.17,2.17,0,0,0,.52,1.48,1.77,1.77,0,0,0,1.36.52,2.78,2.78,0,0,0,1.78-.64v.87a3.36,3.36,0,0,1-2,.55,2.42,2.42,0,0,1-1.91-.78,3.2,3.2,0,0,1-.7-2.21,3.16,3.16,0,0,1,.76-2.19A2.45,2.45,0,0,1,158,132a2.17,2.17,0,0,1,1.75.73,3.06,3.06,0,0,1,.61,2Zm-.94-.78a1.86,1.86,0,0,0-.38-1.24,1.33,1.33,0,0,0-1.06-.45,1.48,1.48,0,0,0-1.1.47,2.14,2.14,0,0,0-.57,1.22Z"/><path d="M164.43,133.08a1.1,1.1,0,0,0-.7-.19,1.17,1.17,0,0,0-1,.56,2.51,2.51,0,0,0-.4,1.51v2.93h-.92v-5.75h.92v1.19h0a2,2,0,0,1,.6-1,1.41,1.41,0,0,1,.91-.34,1.56,1.56,0,0,1,.55.08Z"/><path d="M168.14,133.08a1.1,1.1,0,0,0-.7-.19,1.17,1.17,0,0,0-1,.56,2.51,2.51,0,0,0-.4,1.51v2.93h-.92v-5.75h.92v1.19h0a2,2,0,0,1,.6-1,1.41,1.41,0,0,1,.91-.34,1.56,1.56,0,0,1,.55.08Z"/><path d="M173,137.89H172V137h0a1.94,1.94,0,0,1-1.77,1,1.85,1.85,0,0,1-1.34-.46,1.54,1.54,0,0,1-.49-1.2c0-1.08.64-1.7,1.9-1.88l1.72-.24c0-1-.39-1.47-1.18-1.47a2.86,2.86,0,0,0-1.88.71v-.94a3.58,3.58,0,0,1,2-.54c1.35,0,2,.71,2,2.14ZM172,135l-1.38.19a2.3,2.3,0,0,0-1,.31.91.91,0,0,0-.32.81.89.89,0,0,0,.3.69,1.18,1.18,0,0,0,.8.26,1.49,1.49,0,0,0,1.13-.48,1.69,1.69,0,0,0,.44-1.21Z"/><path d="M177.41,133.08a1.07,1.07,0,0,0-.69-.19,1.17,1.17,0,0,0-1,.56,2.58,2.58,0,0,0-.4,1.51v2.93h-.92v-5.75h.92v1.19h0a2,2,0,0,1,.6-1,1.4,1.4,0,0,1,.9-.34,1.56,1.56,0,0,1,.55.08Z"/><path d="M185.89,137.89H185v-1h0a2.13,2.13,0,0,1-2,1.11,2.16,2.16,0,0,1-1.73-.77,3.21,3.21,0,0,1-.65-2.11,3.42,3.42,0,0,1,.72-2.28,2.36,2.36,0,0,1,1.92-.86,1.84,1.84,0,0,1,1.72.93h0v-3.56h.92Zm-.92-2.6v-.84a1.62,1.62,0,0,0-.46-1.18,1.5,1.5,0,0,0-1.17-.49,1.59,1.59,0,0,0-1.32.62,2.72,2.72,0,0,0-.48,1.71,2.45,2.45,0,0,0,.46,1.57,1.51,1.51,0,0,0,1.24.57,1.56,1.56,0,0,0,1.25-.55A2.08,2.08,0,0,0,185,135.29Z"/><path d="M192.09,135.25H188a2.17,2.17,0,0,0,.52,1.48,1.77,1.77,0,0,0,1.36.52,2.78,2.78,0,0,0,1.78-.64v.87a3.36,3.36,0,0,1-2,.55,2.46,2.46,0,0,1-1.92-.78,3.25,3.25,0,0,1-.69-2.21,3.16,3.16,0,0,1,.76-2.19,2.45,2.45,0,0,1,1.89-.84,2.14,2.14,0,0,1,1.74.73,3,3,0,0,1,.62,2Zm-.94-.78a1.81,1.81,0,0,0-.39-1.24,1.29,1.29,0,0,0-1-.45,1.48,1.48,0,0,0-1.1.47,2.14,2.14,0,0,0-.57,1.22Z"/><path d="M197.72,132.14l-2.29,5.75h-.91l-2.18-5.75h1l1.46,4.18a4.15,4.15,0,0,1,.21.8h0a4.46,4.46,0,0,1,.18-.78l1.53-4.2Z"/><path d="M200.82,138a2.64,2.64,0,0,1-2-.81,3,3,0,0,1-.76-2.13,3.12,3.12,0,0,1,.79-2.27A2.84,2.84,0,0,1,201,132a2.56,2.56,0,0,1,2,.79,3.16,3.16,0,0,1,.73,2.2,3.08,3.08,0,0,1-.78,2.2A2.75,2.75,0,0,1,200.82,138Zm.07-5.25a1.75,1.75,0,0,0-1.4.61,2.43,2.43,0,0,0-.52,1.66,2.33,2.33,0,0,0,.52,1.61,1.76,1.76,0,0,0,1.4.59,1.67,1.67,0,0,0,1.37-.58,2.49,2.49,0,0,0,.48-1.64,2.55,2.55,0,0,0-.48-1.66A1.68,1.68,0,0,0,200.89,132.78Z"/><path d="M205.79,137.89h-.92v-8.51h.92Z"/><path d="M212,137.89h-.92V137h0A1.88,1.88,0,0,1,209.3,138c-1.37,0-2.06-.82-2.06-2.45v-3.44h.92v3.29c0,1.22.46,1.82,1.39,1.82a1.41,1.41,0,0,0,1.11-.49,1.93,1.93,0,0,0,.44-1.3v-3.32H212Z"/><path d="M217.51,137.63a3,3,0,0,1-1.58.4,2.6,2.6,0,0,1-2-.8,2.94,2.94,0,0,1-.76-2.08,3.22,3.22,0,0,1,.82-2.28,2.86,2.86,0,0,1,2.17-.86,3,3,0,0,1,1.34.28v.94a2.36,2.36,0,0,0-1.37-.45,1.84,1.84,0,0,0-1.45.64,2.42,2.42,0,0,0-.56,1.66,2.25,2.25,0,0,0,.53,1.59,1.82,1.82,0,0,0,1.42.58,2.3,2.3,0,0,0,1.42-.5Z"/><path d="M219.08,130.68a.57.57,0,0,1-.42-.17.57.57,0,0,1-.17-.42.6.6,0,0,1,.17-.43.57.57,0,0,1,.42-.17.56.56,0,0,1,.43.17.57.57,0,0,1,.18.43.58.58,0,0,1-.18.42A.56.56,0,0,1,219.08,130.68Zm.45,7.21h-.92v-5.75h.92Z"/><path d="M223.51,138a2.64,2.64,0,0,1-2-.81,3,3,0,0,1-.76-2.13,3.12,3.12,0,0,1,.79-2.27,2.86,2.86,0,0,1,2.14-.81,2.59,2.59,0,0,1,2,.79,3.15,3.15,0,0,1,.72,2.2,3.08,3.08,0,0,1-.78,2.2A2.73,2.73,0,0,1,223.51,138Zm.07-5.25a1.75,1.75,0,0,0-1.4.61,2.43,2.43,0,0,0-.52,1.66,2.33,2.33,0,0,0,.52,1.61,1.76,1.76,0,0,0,1.4.59,1.66,1.66,0,0,0,1.37-.58,2.49,2.49,0,0,0,.48-1.64,2.55,2.55,0,0,0-.48-1.66A1.67,1.67,0,0,0,223.58,132.78Z"/><path d="M232.33,137.89h-.92v-3.28c0-1.22-.44-1.83-1.33-1.83a1.48,1.48,0,0,0-1.15.52,2,2,0,0,0-.45,1.31v3.28h-.92v-5.75h.92v1h0a2.08,2.08,0,0,1,1.89-1.09,1.74,1.74,0,0,1,1.44.61,2.66,2.66,0,0,1,.5,1.76Z"/><path d="M238.4,135.25h-4.06a2.17,2.17,0,0,0,.52,1.48,1.77,1.77,0,0,0,1.36.52,2.78,2.78,0,0,0,1.78-.64v.87a3.36,3.36,0,0,1-2,.55,2.46,2.46,0,0,1-1.92-.78,3.25,3.25,0,0,1-.69-2.21,3.16,3.16,0,0,1,.76-2.19A2.45,2.45,0,0,1,236,132a2.14,2.14,0,0,1,1.74.73,3,3,0,0,1,.62,2Zm-.94-.78a1.81,1.81,0,0,0-.39-1.24,1.29,1.29,0,0,0-1-.45,1.48,1.48,0,0,0-1.1.47,2.08,2.08,0,0,0-.57,1.22Z"/><path d="M239.16,137.69v-1a2.71,2.71,0,0,0,1.66.55c.8,0,1.21-.27,1.21-.81a.71.71,0,0,0-.11-.39.93.93,0,0,0-.28-.28,1.75,1.75,0,0,0-.41-.22l-.52-.21c-.25-.1-.47-.2-.67-.3a2,2,0,0,1-.48-.35,1.25,1.25,0,0,1-.29-.44,1.5,1.5,0,0,1-.1-.58,1.28,1.28,0,0,1,.19-.71,1.55,1.55,0,0,1,.49-.53,2.33,2.33,0,0,1,.7-.31,2.85,2.85,0,0,1,.82-.11,3.21,3.21,0,0,1,1.34.26v.93a2.58,2.58,0,0,0-1.46-.42,1.73,1.73,0,0,0-.47.06,1,1,0,0,0-.35.17.77.77,0,0,0-.23.25.63.63,0,0,0-.09.33.74.74,0,0,0,.09.38.83.83,0,0,0,.23.27,1.79,1.79,0,0,0,.39.21l.51.21c.25.1.48.2.68.3a2.25,2.25,0,0,1,.52.35,1.54,1.54,0,0,1,.33.44,1.57,1.57,0,0,1,.11.6,1.39,1.39,0,0,1-.19.75,1.55,1.55,0,0,1-.5.52,2.34,2.34,0,0,1-.72.31,3.49,3.49,0,0,1-.86.1A3.36,3.36,0,0,1,239.16,137.69Z"/><path d="M176.39,150.39h-.92v-1h0a2.32,2.32,0,0,1-3.71.34,3.21,3.21,0,0,1-.65-2.11,3.42,3.42,0,0,1,.72-2.28,2.36,2.36,0,0,1,1.92-.86,1.84,1.84,0,0,1,1.72.93h0v-3.56h.92Zm-.92-2.6V147a1.62,1.62,0,0,0-.46-1.18,1.53,1.53,0,0,0-1.17-.49,1.59,1.59,0,0,0-1.32.62,2.72,2.72,0,0,0-.48,1.71,2.45,2.45,0,0,0,.46,1.57,1.51,1.51,0,0,0,1.24.57,1.57,1.57,0,0,0,1.25-.55A2.08,2.08,0,0,0,175.47,147.79Z"/><path d="M182.59,147.75h-4.06a2.17,2.17,0,0,0,.52,1.48,1.77,1.77,0,0,0,1.36.52,2.8,2.8,0,0,0,1.78-.64V150a3.36,3.36,0,0,1-2,.55,2.46,2.46,0,0,1-1.92-.78,3.25,3.25,0,0,1-.69-2.21,3.16,3.16,0,0,1,.76-2.19,2.43,2.43,0,0,1,1.89-.84,2.14,2.14,0,0,1,1.74.73,3.06,3.06,0,0,1,.62,2Zm-.94-.78a1.86,1.86,0,0,0-.39-1.24,1.29,1.29,0,0,0-1-.45,1.52,1.52,0,0,0-1.11.47,2.13,2.13,0,0,0-.56,1.22Z"/><path d="M187.48,150.39h-.92v-8.51h.92Z"/><path d="M190,150.39h-.92v-8.51H190Z"/><path d="M195.67,150.39h-.92v-.89h0a1.94,1.94,0,0,1-1.77,1,1.87,1.87,0,0,1-1.35-.46,1.57,1.57,0,0,1-.48-1.2c0-1.08.63-1.7,1.89-1.88l1.73-.24c0-1-.4-1.47-1.19-1.47a2.84,2.84,0,0,0-1.87.71v-.94a3.55,3.55,0,0,1,1.95-.54c1.35,0,2,.71,2,2.14Zm-.92-2.9-1.39.19a2.25,2.25,0,0,0-1,.31.91.91,0,0,0-.33.81.89.89,0,0,0,.3.69,1.2,1.2,0,0,0,.8.26,1.47,1.47,0,0,0,1.13-.48,1.69,1.69,0,0,0,.45-1.21Z"/><path d="M205.28,150.39h-.92v-3.3a2.58,2.58,0,0,0-.29-1.38,1.15,1.15,0,0,0-1-.43,1.23,1.23,0,0,0-1,.54,2.09,2.09,0,0,0-.41,1.29v3.28h-.92V147c0-1.13-.44-1.7-1.31-1.7a1.21,1.21,0,0,0-1,.51,2.11,2.11,0,0,0-.39,1.32v3.28h-.92v-5.75H198v.91h0a2,2,0,0,1,1.79-1,1.64,1.64,0,0,1,1,.33,1.55,1.55,0,0,1,.6.86,2.07,2.07,0,0,1,1.91-1.19c1.27,0,1.9.78,1.9,2.34Z"/><path d="M210.85,150.39h-.92v-.89h0a1.94,1.94,0,0,1-1.77,1,1.89,1.89,0,0,1-1.35-.46,1.57,1.57,0,0,1-.48-1.2c0-1.08.63-1.7,1.9-1.88l1.72-.24c0-1-.39-1.47-1.18-1.47a2.84,2.84,0,0,0-1.88.71v-.94a3.57,3.57,0,0,1,1.95-.54c1.36,0,2,.71,2,2.14Zm-.92-2.9-1.39.19a2.25,2.25,0,0,0-1,.31.91.91,0,0,0-.33.81.89.89,0,0,0,.3.69,1.2,1.2,0,0,0,.8.26,1.46,1.46,0,0,0,1.13-.48,1.69,1.69,0,0,0,.45-1.21Z"/><path d="M217.21,150.39h-.92v-1h0a2.11,2.11,0,0,1-2,1.11,2.18,2.18,0,0,1-1.74-.77,3.2,3.2,0,0,1-.64-2.11,3.47,3.47,0,0,1,.71-2.28,2.36,2.36,0,0,1,1.92-.86,1.84,1.84,0,0,1,1.72.93h0v-3.56h.92Zm-.92-2.6V147a1.66,1.66,0,0,0-.46-1.18,1.53,1.53,0,0,0-1.17-.49,1.61,1.61,0,0,0-1.33.62,2.72,2.72,0,0,0-.48,1.71,2.45,2.45,0,0,0,.46,1.57,1.53,1.53,0,0,0,1.25.57,1.57,1.57,0,0,0,1.25-.55A2.08,2.08,0,0,0,216.29,147.79Z"/><path d="M222.9,150.39H222v-.89h0a1.94,1.94,0,0,1-1.77,1,1.87,1.87,0,0,1-1.35-.46,1.57,1.57,0,0,1-.48-1.2c0-1.08.63-1.7,1.89-1.88l1.73-.24c0-1-.4-1.47-1.19-1.47a2.84,2.84,0,0,0-1.87.71v-.94a3.53,3.53,0,0,1,2-.54c1.35,0,2,.71,2,2.14Zm-.92-2.9-1.39.19a2.2,2.2,0,0,0-1,.31.91.91,0,0,0-.33.81.89.89,0,0,0,.3.69,1.2,1.2,0,0,0,.8.26,1.47,1.47,0,0,0,1.13-.48,1.69,1.69,0,0,0,.45-1.21Z"/></svg>